<?xml version="1.0" encoding="utf-8"?>
<!-- Generator: Adobe Illustrator 16.0.0, SVG Export Plug-In . SVG Version: 6.00 Build 0)  -->
<!DOCTYPE svg PUBLIC "-//W3C//DTD SVG 1.1//EN" "http://www.w3.org/Graphics/SVG/1.1/DTD/svg11.dtd">
<svg version="1.1" id="Layer_1" xmlns="http://www.w3.org/2000/svg" xmlns:xlink="http://www.w3.org/1999/xlink" x="0px" y="0px"
	 width="543.111px" height="173.819px" viewBox="160.137 124.553 543.111 173.819"
	 enable-background="new 160.137 124.553 543.111 173.819" xml:space="preserve">
<g>
	<path fill="#27BDB2" d="M319.105,159.815c-3.736,0-7.133,1.528-9.594,3.99c-2.461,2.461-3.989,5.856-3.989,9.593V284.79
		c0,3.737,1.528,7.132,3.989,9.594c2.461,2.461,5.858,3.988,9.594,3.988h185.281v-0.001h185.279c3.736,0,7.133-1.526,9.593-3.988
		c2.462-2.461,3.989-5.857,3.989-9.594V173.398c0-3.737-1.525-7.132-3.989-9.593c-2.46-2.461-5.856-3.989-9.593-3.989"/>
	<path fill="#FFFFFF" d="M688.924,162.429c3.17,0,6.053,1.29,8.143,3.37c2.092,2.08,3.39,4.948,3.39,8.102v110.385
		c0,3.153-1.298,6.021-3.39,8.101c-2.09,2.081-4.973,3.37-8.143,3.37H504.387H319.849c-3.17,0-6.052-1.291-8.144-3.37
		c-2.09-2.08-3.388-4.948-3.388-8.101V173.901c0-3.153,1.298-6.021,3.388-8.102c2.092-2.079,4.974-3.37,8.144-3.37"/>
	<path fill="none" d="M229.368,177.447L229.368,177.447c-1.183,0.013-2.374,0.065-3.576,0.165
		c-10.929,0.901-19.382,4.329-27.472,10.487c-13.202,10.051-20.536,26.46-19.459,43.429c1.636,25.736,23.092,47.157,50.506,47.176
		c1.209,0.001,2.431-0.036,3.663-0.119c26.771-1.826,48.854-25.069,46.817-54.338C278.095,199.061,256.444,177.151,229.368,177.447z
		"/>
	<path fill="#27BDB2" d="M233.026,160.763c-1.228-0.065-2.447-0.098-3.659-0.1c-36.793-0.056-65.439,29.033-67.342,63.889
		c-2.203,40.338,30.625,70.966,67.342,70.981c12.074,0.005,24.569-3.296,36.378-10.655c18.108-11.288,29.599-31.428,30.948-53.346
		C298.939,195.05,270.249,162.757,233.026,160.763z"/>
	<path fill="#FFFFFF" d="M233.03,278.585c-1.232,0.083-2.453,0.12-3.663,0.119c-27.414-0.019-48.871-21.44-50.506-47.176
		c-1.077-16.969,6.257-33.378,19.459-43.429c8.09-6.158,16.543-9.586,27.472-10.487c1.202-0.1,2.394-0.151,3.575-0.165h0.001
		c27.076-0.296,48.727,21.614,50.479,46.799C281.883,253.516,259.801,276.759,233.03,278.585z"/>
	
		<linearGradient id="SVGID_1_" gradientUnits="userSpaceOnUse" x1="543.6025" y1="572.54" x2="543.6025" y2="561.8925" gradientTransform="matrix(1 0 0 -1 0 793)">
		<stop  offset="0" style="stop-color:#030500"/>
		<stop  offset="1" style="stop-color:#817E7E"/>
	</linearGradient>
	<path fill="url(#SVGID_1_)" d="M640.552,232.037v-5.443c1.285,0.049,2.647,0.041,4.173-0.455c1.775-1.311,2.494-2.001,2.421-5.042
		c-0.101-4.119-3.571-5.162-6.593-5.085v-5.909c4.503,0.04,9.066,1.372,11.472,4.115c2.019,2.302,2.376,9.034,1.158,12.357
		C651.122,232.202,645.25,231.795,640.552,232.037L640.552,232.037z M675.889,239.217c0.031,0.269,0.057,0.526,0.074,0.776
		c2.238,0.271,4.475,0.547,6.709,0.832c-0.004-0.185-0.01-0.37-0.019-0.561c0.051-4.305-0.938-7.833-5.135-9.825
		c-2.927-1.391-11.173-3.39-13.059-4.884c-1.81-1.432-2.483-5.346-0.78-7.499c4.445-5.614,13.436-0.65,12.368,3.466l6.582-0.039
		c0.839-10.649-9.319-12.154-17.091-11.048c-4.454,0.634-7.291,2.512-8.723,5.859c-0.834,1.954-1,6.802-0.172,9.798
		C659.049,234.783,674.313,232.547,675.889,239.217z M555.295,232.423c0.125-0.555,0.188-1.142,0.189-1.761l0.017-12.027
		c0.005-3.599-0.628-5.661-4.763-7.193c-4.9-1.816-15.666-2.173-19.849,1.662c-1.985,1.821-1.884,3.039-1.881,6.303l0.018,13.163
		c2.241-0.04,4.481-0.071,6.72-0.096l-0.07-13.025c-0.018-3.169,0.992-4.088,4.227-4.539c3.646-0.51,9.001-0.559,9.004,4.034
		l0.008,10.688c0,1.175-0.635,2.071-1.604,2.77C549.973,232.397,552.635,232.406,555.295,232.423L555.295,232.423z M640.552,210.103
		v5.91c-1.112,0.029-2.165,0.21-2.963,0.445c-2.066,0.611-3.327,1.542-3.617,3.817l-0.019,7.888c2.271-1.935,4.313-1.658,6.598-1.57
		v5.443c-2.932,0.152-5.406,0.557-6.208,2.84c-0.026,0.312-0.061,0.62-0.097,0.927c-2.292-0.184-4.583-0.362-6.877-0.53
		l0.369-16.755c0.045-2.07,0.865-3.766,1.75-4.813C631.67,211.303,636.08,210.064,640.552,210.103L640.552,210.103z M513.377,232.15
		v-5.631c1.167,0.004,2.307,0.03,3.199-0.013c1.898-0.75,3.195-1.762,3.377-4.188c0.222-2.965-0.436-4.435-2.352-5.401
		c-1.014-0.51-2.582-0.871-4.225-0.883v-5.946c4.839,0.008,10.219,1.411,12.373,5.483c1.059,2.006,1.409,9.641,0.011,11.355
		c-0.771,2.602-3.908,4.614-6.458,5.125C517.426,232.43,515.342,232.161,513.377,232.15L513.377,232.15z M593.343,233.324
		l-0.004-11.947c-0.001-5.075,5.082-5.474,9.515-5.412l1.229-5.659c-9.783-0.813-17.411,0.473-17.403,11.768l-0.001,10.996
		C588.9,233.147,591.122,233.232,593.343,233.324L593.343,233.324z M618.269,215.785l6.675-0.076l0.001-5.504l-6.669-0.076
		l-0.077-10.309l-6.589-0.004l-0.008,10.352l-4.974,0.079l-0.005,5.502l4.979,0.079l-0.078,18.406
		c2.232,0.13,4.465,0.266,6.694,0.41L618.269,215.785L618.269,215.785z M584.376,221.839c0.013-2.895-0.2-5.577-1.892-7.693
		c-3.87-4.843-16.912-5.583-22.145-0.705c-2.385,2.226-2.572,4.898-2.564,8.171l0.021,10.829c2.187,0.019,4.371,0.044,6.557,0.077
		l0.01-10.673c0.003-3.498,1.197-6.071,7.213-5.759c4.99,0.259,6.189,2.479,6.182,5.876l-0.021,10.832
		c2.199,0.059,4.396,0.123,6.591,0.195L584.376,221.839z M513.377,210.088v5.946c-2.691-0.02-5.58,0.895-6.538,3.615l-0.08,8.345
		c0.688-0.309,1.021-0.758,1.852-1.047c1.136-0.396,2.985-0.436,4.767-0.428v5.631c-1.547-0.01-3.021,0.141-4.26,0.892l-0.06,0.05
		c-2.951,0.103-5.905,0.219-8.86,0.345l0.164-14.643c0.036-3.283,2.728-6.221,5.689-7.486
		C507.75,210.583,510.467,210.084,513.377,210.088L513.377,210.088z M411.301,240.624l0.025-19.916
		c0.283-3.721,3.151-4.775,7.014-4.628c3.646,0.337,6.301,1.594,6.17,5.439l6.422,0.013c1.563-12.364-14.413-13.042-21.26-9.824
		c-2.127,1-5.041,3.498-4.871,6.449c-0.162,0.265-0.053-0.205-0.224,0.559l-0.049,22.726
		C406.787,241.163,409.044,240.891,411.301,240.624L411.301,240.624z M477.992,223.334c0.05-4.144,11.247-4.871,13.098-7.736
		l0.073,18.262c2.144-0.107,4.286-0.21,6.427-0.306l0.154-38.494h-6.604l0.022,10.066c0.007,3.151-0.569,4.513-5.028,6.153
		c-2.484,0.914-9.798,3.227-11.369,4.402c-3.119,2.333-3.512,5.566-3.543,9.217l-0.006,10.145c2.25-0.152,4.498-0.297,6.746-0.436
		L477.992,223.334L477.992,223.334z M468.809,235.21l-0.106-39.945h-6.456l-0.006,40.422
		C464.431,235.521,466.619,235.364,468.809,235.21L468.809,235.21z M459.914,221.839c0.012-2.895-0.2-5.577-1.893-7.693
		c-3.87-4.843-16.914-5.583-22.145-0.705c-2.386,2.226-2.572,4.898-2.564,8.171l0.035,16.61c2.18-0.219,4.359-0.429,6.538-0.634
		l0.015-15.744c0.004-3.498,1.198-6.071,7.213-5.759c4.99,0.259,6.189,2.479,6.183,5.876L453.27,236.4
		c2.195-0.183,4.391-0.359,6.584-0.53L459.914,221.839z"/>
	<path fill="#231F20" d="M361.881,215.101c-5.295-0.077-12.025,0.283-18.31,0.799c0.507,1.856,0.907,2.682,1.655,4.39
		c6.121-0.49,11.762-0.821,16.084-0.716c0.615,14.69-15.096,16.614-19.808,15.01l1.715,5.285
		c16.536-1.123,22.412-7.381,23.198-12.688c9.418,0.036,8.563,2.433-0.101,4.021l1.6,4.355c3.769-0.349,14.362-3.745,15.177-6.403
		c1.377-4.503-12.517-5.276-15.568-6.417l-0.43-1.167c0.377-0.297,7.021,0.157,8.422,0.058l7.967-1.194l-1.502-3.873
		c-5.318,1.197-10.303,1.288-14.904,0.111c0.063-2.75,1.992-4.19,6.282-3.973c-0.43-1.218-1.287-3.329-2.476-3.562
		C364.124,208.61,361.826,211.916,361.881,215.101z"/>
	<path fill="#F9D737" d="M333.004,240.085c-0.543-1.551-0.548-2.396-0.888-4.292l0.258,0.335c0.327,0.516,0.038-0.012,0.306,0.524
		c0.518,1.029,0.586,1.567,1.403,2.894c0.363,0.589,0.739,1.203,1.058,1.7c0.681,1.061,0.414,0.691,1.377,1.571
		c-1.014-2.186-2.877-4.108-3.892-7.659c-3.653-8.636-0.251-17.697,4.12-23.332c1.268-1.634,0.885-0.827,1.517-1.262
		c1.72-1.18,4.116-4.993,11.405-7.885c6.017-2.385,15.287-2.914,21.721-1.314c6.137,1.525,11.75,5.994,12.443,6.102
		c0.008,0-0.057-0.486,1.68,0.905c0.625,0.503,1.16,1.031,1.9,1.56l0.076-0.661l2.116,2.276c-0.478-1.827-0.317-1.261-1.235-2.484
		l1.162-0.807l-0.691-1.473c-1.275-1.433-2.162-2.858-3.705-4.042c-0.513-0.394-0.747-0.479-1.166-0.852
		c-0.848-0.754,1.582-0.219-2.08-2.333c-2.996-1.729-7.618-3.117-11.379-3.774c-9.34-1.635-17.649-0.035-25.376,3.646
		c-6.853,3.264-12.519,8.809-15.606,15.601c-1.889,4.15-2.762,8.724-2.041,13.84c0.25,1.775,1.462,6.12,2.302,7.917
		c0.433,0.928,0.444,0.642,0.651,0.872l1.354,2.633l0.703-1.103C332.631,239.924,332.547,239.666,333.004,240.085z"/>
	<path fill="#2C91CF" d="M387.414,209.934c1.816,1.642,4.299,5.351,5.354,8.695c1.093,3.459,1.357,9.281,0.023,12.762
		c-1.41,3.676-1.984,7.821-6.342,11.513c-3.813,3.233-1.769,2.374-3.678,3.989c-0.158,0.132-0.415,0.352-0.537,0.49
		c-0.043,0.047-0.088,0.102-0.129,0.151l-0.377,0.538l1.117-0.414c-0.046,0.051-0.116,0.053-0.141,0.147
		c-0.07,0.273-1.614,1.122-1.793,1.262l-0.601,0.581c1.387-0.011,1.347-0.347,2.108-0.454l0.821,1.119l0.891-0.202
		c2.487-0.761,4.093-1.877,4.132-1.888c0.84-0.232-0.24,0.606,1.186-0.059c3.63-1.688,8.329-10.788,9.158-17.101
		c0.732-5.563-0.07-10.751-2.115-15.035c-0.995-2.082-2.183-4.064-3.418-5.371c-0.877-0.928-1.177-1.375-2.095-2.105
		c-0.534-0.427-0.427-0.25-0.991-0.723c-0.449-0.378-0.746-0.654-1.147-1.042l0.69,1.472l-1.16,0.807
		c0.917,1.224,0.758,0.657,1.234,2.484l-2.116-2.276L387.414,209.934z"/>
	<path fill="#E71C25" d="M340.898,249.806c3.389,3.801,15.658,7.09,21.498,7.113c4.475,0.02,8.213-0.396,12.301-1.707
		c1.906-0.611,3.406-1.328,5.045-2.243l4.39-2.859l-0.891,0.202l-0.821-1.119c-0.762,0.107-0.723,0.443-2.108,0.454l0.601-0.581
		c0.18-0.14,1.724-0.989,1.793-1.262c0.023-0.095,0.095-0.097,0.141-0.147l-1.117,0.414c-1.723,1.341-6.461,3.13-9.092,3.781
		l-10.628,0.402c-4.248-0.116-7.456-1.051-11.125-2.922c-1.339-0.683-3.688-1.664-4.855-2.425c-1.385-0.906-3.132-2.784-4.319-3.376
		c-0.316-0.496-4.721-6.704-4.992-6.811c-0.251-0.098,0.112,0.375-0.43-0.187l-1.709-2.667l0.885,2.559
		c-0.957-1.128-0.928-2.377-1.908-3.708c-0.309,1.704,0.6,2.958-0.928,2.441c1.014,3.551,2.878,5.473,3.892,7.659
		c-0.964-0.879-0.696-0.51-1.376-1.57c-0.32-0.498-0.695-1.112-1.059-1.701c-0.816-1.327-0.885-1.865-1.402-2.894
		c-0.27-0.536,0.02-0.008-0.307-0.524l-0.258-0.334c0.341,1.896,0.345,2.74,0.887,4.292c-0.301,1.558-0.14,1.778,0.834,3.162
		c0.601,0.855,1.453,1.541,2.109,2.358C336.824,246.697,339.606,249.223,340.898,249.806z"/>
	<polygon fill="#FFFFFF" points="243.063,290.122 244.853,289.698 244.199,284.651 247.817,288.952 248.319,288.653 
		248.483,283.237 250.671,287.845 252.371,287.424 248.516,279.025 247.317,279.263 246.873,285.284 243.292,280.62 
		241.864,280.841 	"/>
	<path fill="#FFFFFF" d="M235.729,283.701c2.704-0.248,3.604,4.577,1.029,5.7c-0.352,0.154-0.698,0.209-1.029,0.19v1.838
		c1.905,0.064,3.828-1.053,4.407-3.619c0.815-3.604-1.81-5.78-4.407-5.855V283.701z M235.021,283.871
		c0.248-0.095,0.484-0.149,0.708-0.17v-1.747c-1.913-0.057-3.811,1.026-4.312,3.513c-0.742,3.681,1.769,5.875,4.312,5.961v-1.838
		C233.32,289.432,231.764,285.121,235.021,283.871z"/>
	<path fill="#FFFFFF" d="M219.319,283.213c3.032-0.258,3.508,4.943,0.529,5.766c-0.184,0.052-0.359,0.082-0.529,0.098v1.816
		c1.774,0.002,3.545-1.015,4.228-3.327c0.819-2.777-0.677-5.266-2.785-5.937c-0.497-0.158-0.98-0.226-1.443-0.218V283.213z
		 M218.841,283.295c0.166-0.042,0.325-0.067,0.478-0.081v-1.802c-2.154,0.036-3.841,1.705-4.316,3.412
		c-1.04,3.731,1.641,6.063,4.316,6.069v-1.816C216.276,289.349,215.801,284.065,218.841,283.295z"/>
	<path fill="#FFFFFF" d="M192.039,272.103c0.536-0.61,1.011-1.098,1.238-1.242c2.333,2.047,0.91,4.975-1.238,5.332v1.871
		c3.369-0.154,5.179-4.709,3.877-6.512l-3.161-3.034c-0.158,0.128-0.407,0.379-0.716,0.717V272.103z M189.602,275.438
		c0.152-0.527,1.408-2.16,2.438-3.335v-2.869c-1.484,1.626-4.327,5.228-4.922,6.205c1.838,1.988,3.516,2.689,4.922,2.625v-1.871
		C191.273,276.321,190.416,276.122,189.602,275.438z"/>
	<path fill="#FFFFFF" d="M231.412,170.014c0.278,0.064,0.491,0.174,0.917,0.37c0.296,0.532,0.2,1.132,0.032,1.592
		c-0.459,0.307-0.642,0.384-0.949,0.395v1.57c1.606-0.137,2.965-0.796,2.762-3.002c-0.094-1.013-0.496-1.365-1.182-1.985
		c1.538-1.92,0.442-3.804-1.569-4.059h-0.01v1.58c0.739,0.348,0.739,1.344,0,1.779L231.412,170.014L231.412,170.014z
		 M230.303,172.355l0.053-2.429c0.523,0.01,0.813,0.031,1.055,0.087v-1.762c-0.25,0.147-0.582,0.229-1,0.202l0.064-2.077
		c0.388-0.061,0.699-0.015,0.936,0.096v-1.58l-2.707-0.08l-0.082,9.038c0.84,0.072,1.856,0.168,2.788,0.088v-1.569
		C231.175,172.379,230.867,172.35,230.303,172.355z"/>
	<path fill="#FFFFFF" d="M199.99,175.463l-0.076,1.349l-0.844,0.414c-0.085-0.083-0.166-0.165-0.243-0.248v3.739
		c0.423,0.706,0.773,1.286,0.961,1.604l1.542-0.794l-1.404-2.743c2.242,0.747,3.136,2.813,5.047,0.507l-3.805-1.749
		c1.307-2.69-0.042-4.769-2.341-4.544v1.589l0.196-0.073L199.99,175.463z M198.829,176.978c-0.525-0.573-0.84-1.18-1.163-1.962
		l1.163-0.428v-1.589c-0.973,0.096-2.115,0.604-3.298,1.652c-0.027,0.024-0.086,0.081-0.126,0.124
		c0.269,0.675,2.17,3.854,3.425,5.942V176.978z"/>
	<path fill="#FFFFFF" d="M258.083,176.371l1.049-1.072l-0.538,2.924l-0.511-0.256v1.776l0.187,0.097l-0.187,1.646v0.533l1.584,0.772
		l1.509-9.767l-1.187-0.585l-1.906,1.569V176.371z M257.036,177.443l1.047-1.072v-2.362l-5.629,4.634l1.67,0.957l1.45-1.165
		l2.509,1.309v-1.776L257.036,177.443L257.036,177.443z M258.083,181.487v0.533l-0.058-0.027L258.083,181.487z"/>
	<path fill="#FFFFFF" d="M254.816,286.179l3.643-1.561c1.349-1.271,1.179-4.058-1.903-4.427c0.644-0.974,0.315-2.539-1.165-3.145
		c-1.454-0.595-2.98,0.442-4.443,1.147L254.816,286.179z"/>
	<path fill="#FFFFFF" d="M266.157,273.458c0.522,0.309,1.012,0.672,1.273,1.01l-1.273,1.023v4.401l0.964-0.566l-0.557-1.94
		l2.354-2.014l1.717,0.888l1.432-1.006c-0.192-0.219-0.129-0.172-0.389-0.389c-0.607-0.504-3.364-2.088-5.523-3.306L266.157,273.458
		L266.157,273.458z M264.886,272.842c0.366,0.134,0.831,0.356,1.271,0.616v-1.898c-1.198-0.675-2.211-1.238-2.573-1.439
		l-0.922,0.701l2.958,9.384l0.537-0.315v-4.401l-0.144,0.117L264.886,272.842z"/>
	<path fill="#FFFFFF" d="M203.026,170.494l3.354,8.344l4.387-1.909l-0.603-1.349l-2.691,0.955l-0.755-2.073l2.392-1.148
		l-0.409-1.346l-2.706,0.947l-0.631-1.732l2.566-0.948l-0.53-1.35C206.623,168.717,203.999,169.982,203.026,170.494z"/>
	<path fill="#FFFFFF" d="M213.745,168.438c0.554,0.004,0.873,0.247,0.998,1.088c0.15,1.004-0.27,1.295-0.998,1.481v1.785
		c1.223-0.927,4.093-0.982,2.519-4.545c-0.543-1.228-1.448-1.498-2.519-1.403V168.438L213.745,168.438z M213.745,176.099v-3.055
		l0.738,2.901L213.745,176.099z M212.724,168.562c0.403-0.07,0.741-0.126,1.019-0.124v-1.595c-0.98,0.088-2.098,0.482-3.21,0.732
		l2.146,8.744l1.064-0.221v-3.055l-0.054-0.21l0.054-0.042v-1.785c-0.117,0.028-0.24,0.057-0.371,0.083
		C212.938,170.49,212.655,169.401,212.724,168.562z"/>
	<path fill="#FFFFFF" d="M199.131,277.379c0.221-0.678,0.353-0.883,0.901-1.455l2.425,1.239l0.783-1.201l-3.894-2.432l-4.713,7.832
		l3.909,2.222l0.799-1.096l-0.358-0.422c-0.035-0.032-0.089-0.083-0.127-0.114c-0.512-0.436-1.057-0.517-1.754-1.178l1.017-1.916
		l2.382,1.277l0.822-1.253L199.131,277.379z"/>
	<path fill="#FFFFFF" d="M251.213,178.004l0.759-1.888c-5.984,1.579-3.33-6.394-0.595-5.557c1.185,0.233,1.863,0.58,2.19,1.479
		l0.638-1.681c0.186-0.491-1.028-1.425-2.524-1.663c-2.176-0.274-3.53,0.944-4.364,2.153
		C245.16,173.982,247.047,178.282,251.213,178.004z"/>
	<path fill="#FFFFFF" d="M212.317,286.907c-1.367,0.135-2.08,0.563-3.094-0.529c-0.67-0.722-0.927-2.052-0.492-3.203
		c0.86-2.274,3.615-2.912,4.893-0.431l0.799-1.941c-1.176-1.2-2.73-1.517-4.582-1.141c-3.146,0.118-5.956,9.508,1.9,9.138
		L212.317,286.907z"/>
	<path fill="#FFFFFF" d="M223.698,165.159c0.13,1.738,1.402,7.561-0.631,7.806c-2.034,0.245-1.999-2.719-2.442-7.495l-1.764,0.184
		c0.433,3.474-0.246,9,3.939,8.786c3.641-0.166,3.974-2.528,2.629-9.368C225.152,164.942,224.062,165.144,223.698,165.159z"/>
	<path fill="#27BDB2" d="M218.841,283.295c-3.209,0.813-2.503,6.654,1.007,5.685C222.978,288.115,222.294,282.421,218.841,283.295z"
		/>
	<path fill="#27BDB2" d="M235.021,283.871c-3.704,1.421-1.183,6.803,1.737,5.529C239.545,288.184,238.261,282.628,235.021,283.871z"
		/>
	<path fill="#FFFFFF" d="M227.682,282.478l-1.827-0.001l-0.261,8.978l4.281,0.122l0.057-1.341c-1.115-0.395-1.229-0.301-2.479-0.299
		L227.682,282.478z"/>
	<polygon fill="#FFFFFF" points="237.286,165.413 236.127,174.277 240.36,174.805 240.45,173.274 238.262,173.048 239.109,165.528 	
		"/>
	<polygon fill="#FFFFFF" points="241.695,175.267 243.43,175.59 245.485,166.813 243.937,166.54 	"/>
	<polygon fill="#FFFFFF" points="257.495,274.663 262.329,282.48 263.759,281.604 258.906,273.773 	"/>
	<path fill="#27BDB2" d="M189.602,275.438c3.092,2.599,6.841-1.797,3.676-4.577C192.616,271.278,189.832,274.638,189.602,275.438z"
		/>
	<g>
		<path fill="#853C26" d="M232.565,196.805c0.154,1.005,1.087,1.395,0.668,2.904c-0.357,1.287-1.572,1.278-2.215,1.55
			c-2.786,1.182-1.547-0.52-3.335-0.928c0.055,1.895,2.047,4.3,0.729,5.996c-1.034-1.157-0.545-1.068-0.839-2.388
			c-0.182-0.818-0.533-0.861-0.907-1.997c-0.414-1.251-0.076-1.188-0.902-1.958c-0.518-0.483-1.095-1.035-1.032-1.521l-0.221,1.745
			l-0.658-0.176c0.75,1.601,1.112,5.004,1.503,7.132c-0.686-0.38-0.579-0.409-1.42-1.255c0.49,1.488,1.845,1.42,2.26,4.435
			c0.105,0.765,0.667,1.179,1.166,1.885l0.919,2.416c0.546-0.392,0.444-0.053,0.691-1.125l0.34-3.137
			c0.047-1.401,0.137,0.205-0.34-1.251c-0.858-2.618,0.511-2.634,0.051-4.201c-0.128-0.438-0.382,0.179,0.117-1.513
			c0.69,0.408,0.136-0.056,0.635,0.55c0.54,0.654,0.758,1.776,0.998,2.583c-0.061,0.025-0.161-0.016-0.188,0.056
			c-0.335,0.886,0.211-0.042-0.763,0.186c0.269,0.606,0.26,0.147,0.784,0.695c0.723,0.756,0.678,1.924,0.834,3.187l-1.09-0.776
			c-0.013,0.875-0.089,0.506,0.733,1.329c0.032,0.032,0.109,0.081,0.144,0.138l1.553-0.401l1.279,1.019
			c-0.632-1.153-0.606-1.147-0.64-2.706c-0.042-2.004-1.113-1.516-0.24-4.02c0.156-0.449,0.174-0.994,0.842-1.006
			c1.217-0.021-0.422,1.449,1.944-0.268l0.677,0.554c1.507-1.014,1.469-1.082,2.389-2.431c0.537,0.025,1.183,0.105,1.611,0.126
			c1.121,0.053,0.142-0.41,1.224,0.332c0.893,0.613-0.157,0.468,2.229,0.277c0.375-1.148-0.076-1.259,0.901-1.486
			c0.678-0.157,0.762,0.334,1.521,0.674l2.518,1.039c1.301,0.058-0.088-0.178,0.679-0.127c0.343,0.022,0.867,0.566,1.402,0.816
			c1.181,0.554,0.651-0.071,1.608,0.311c1.269,0.506,1.859,2.029,2.91,0.569l0.417,0.385l0.493-0.497
			c0.031,0.06,0.067,0.09,0.081,0.188c0.018,0.116,0.142,0.299,0.169,0.352c0.22,0.408-0.028,0.102,0.268,0.444
			c1.285-0.366,1.025,0.696,2.118,0.628c0.834-0.053-0.356-1.058,2.153,0.637c1.629-0.573-1.005,0.341,0.583-0.43
			c0.352-0.17-0.123-0.485,1.592,0.91c1.6-0.51-1.149,0.623,0.474-0.326c0.579-0.339-0.358-0.105,0.356-0.179l3.112,1.53
			c-0.349-2.643-5.06-5.051-7.906-8.114c-1.167-1.256-7.595-6.144-9.215-7.042c-5.811-3.223,0.759-0.979-8.062-4.079
			c-1.169-0.411-2.117-0.659-3.416-0.728C227.805,187.732,237.403,196.625,232.565,196.805z"/>
		<path fill="#853C26" d="M202.042,205.097c0.769-1.322,0.609-0.498,1.22,0.217c1.283-0.393,1.545-1.246,2.721-1.347
			c1.868-0.161,1.007-0.391,2.169-0.946c0.859-0.409,0.238-0.087,0.594-0.044c0.521,0.064,2.403-0.695,3.147-1.072
			c1.907,0.964,1.564,1.018,2.783,1.009c1.23-0.009-1.263-0.05,0.61,0.068c0.978,0.062,0.302,0.125,1.072-0.489
			c1.041-0.831-0.518-0.216,2.591-0.329c0.662,0.944,0.62,0.955,1.444,1.537c1.558,1.099,1.094,0.927,1.401,0.504
			c0.624-1.454-0.082-1.553,0.988-2.778c0.031-0.037,0.09-0.079,0.119-0.115c1.008-1.256-0.484-1.098,0.948-1.278l-0.421-1.887
			l-1.325,3.225l0.347-3.554l-0.639-0.243c0.033-0.478-0.015-0.629,0.161-1.063c0.439-1.084,0.302-0.518,0.592-0.771l-0.208-1.561
			c0.745-0.207,2.779-1.023,3.377-0.744c0.219,0.102,0.16,0.09,0.2,0.101c0.015,0.005,0.075,0.028,0.091,0.03
			c0.425,0.053,0.805-0.442,1.979-0.506l-0.273-0.78l-2.97,0.231c0.252-2.61-0.05-3.626-2.704-4.104
			c-3.381-0.607-9.915,1.303-11.393,2.822c-0.8,0.822-6.553,4.095-8.669,6.131c-1.479,1.425-1.705,0.885-3.997,3.518
			c-1.067,1.226-2.851,2.184-4.019,3.262l-3.315,4.031c0.877,0.079,1.089-0.205,1.65-0.607c1.006-0.721,1.054-0.881,1.539-0.734
			c0.314,0.097-0.062,0.986,1.456-0.167l1.326,0.069c0.4-0.195,0.853-0.565,1.208-0.685c1.947-0.664-0.188,0.396,1.333,0.079
			c0.875-0.183,0.346-0.478,1.315-0.7C200.995,205.315,201.076,205.439,202.042,205.097z"/>
		<path fill="#A7B3B8" d="M231.743,231.002c-0.222,0.6,0.131,0.281-0.447,0.676l0.689,0.869c1.193,1.777,1.027,5.1,1.339,6.46
			c0.337,1.467,0.703,0.402,1.234,1.863l-3.96-0.971l-0.393-1.651l-0.979-0.037c-0.151,0.875-0.083,2.087-0.074,3.035l-0.013,1.199
			l-5.431-0.389l0.907-0.911l-0.902-0.295v-8.106c-0.245-0.762,0.214,0.137-0.316-0.34c-0.521-0.47-0.584-0.167-0.323-1.397
			l-10.327-0.019c0.487,3.302,1.527,9.079,3.059,11.334l27.207,0.029c1.852-2.915,2.617-7.614,3.072-11.388L231.743,231.002z"/>
		<path fill="#C99528" d="M224.737,257.973c1.292,1.001,0.962-0.445,1.742,1.172l0.434,1.209c0.605,1.11,0.039,0.658,0.917,0.656
			h0.182l0.139-2.518c1.73,0.735,0.538,0.769,2.297,0.199c0.472-0.199,1.295-0.959,1.876-1.428c0.229-0.185,0.179-0.185,0.385-0.325
			c0.487-0.334,0.195-0.289,0.767-0.196c1.036,0.477,2.146,1.258,3.308,1.842c3.89,1.953,8.664,1.953,12.452,0.09
			c4.362-2.146,7.962-6.569,9.54-11.266c-1.022,0.343-0.291,0.021-1.004,0.649c-1.955,1.722-3.014,2.152-4.342,3.154l-0.657,0.539
			c-1.54,1.041-3.718,1.5-5.152,1.861c-0.772,0.193-0.276,0.126-0.664,0.186c-0.043,0.007-0.234,0.014-0.274,0.015l-0.669-0.167
			c-1.034,0.481-1.582,1.447-2.321,2.118l1.067,0.829c-1.878-0.052-3.876,0.111-5.664-0.518c-0.493-0.174-0.112,0.02-0.684-0.308
			l-0.645-0.457c0.429-1.537,0.43-2.274,1.559-2.952c-0.577-0.448-0.814-0.474-0.487-1.17c-1.628,0.349-1.354,1.03-2.563,2.037
			c-0.463,0.388-0.373,0.181-0.837,0.812l-1.881,1.601c-0.812,0.624-3.443,2.89-4.165,2.874c-0.879-0.022-6.252-4.701-6.347-4.748
			c-0.03-0.015-0.099-0.037-0.127-0.049c-0.451-0.205-0.036,0.144-0.616-0.306c-0.77-0.6-1.23-1.495-2.126-2.148
			c-0.232,0.49-0.387,0.772-0.697,1.38c0.679-0.181,0.195-0.207,0.639,0.319c0.181,0.213,0.773,1.297,0.733,1.896l-0.201,0.616
			l-5.094,0.809l-0.234-0.432c-0.135-0.521,0.056-0.136,0.225-0.279l-0.689,0.22c-0.743-0.989-1.635-2.168-2.625-3.029
			c-0.79,0.787,1.02,0.44-0.756,0.234l-6.519-2.832l-1.679-1.201c-3.501-2.136-2.082-2.205-4.083-3.512
			c1.537,4.789,4.811,10.287,9.168,12.69c2.452,1.353,5.476,2.248,8.744,1.869l7.842-3.177L224.737,257.973z"/>
		<path fill="#C99528" d="M199.267,213.001c0.361,0.717-0.231,5.024-0.289,6.423l-1.579-1.028l-0.096,1.314
			c0.255,1.352-0.343,6.07-0.361,7.94c-0.021,2.144-0.162,6.268,0.359,8.058l0.224-0.741c0.168,1.485,1.201,3.568,1.838,4.734
			c1.304,2.385,1.158,2.211,2.703,3.861c1.104,1.178,1.405,1.893,3.277,3.263c1.032,0.757,3.163,1.906,4.419,2.233l-1.804-3.847
			c-0.095-0.228-0.176-0.464-0.29-0.688l-0.401-0.663c-0.418,0.434,0.333,0.332-0.535,0.364c-0.531-1.029-0.318-0.729-0.804-1.109
			c-0.392-0.306-0.072,0.029-0.576-0.404l-2.768-3.864c-1.97-3.825-2.793-4.507-2.736-9.986c0.029-2.783,0.786-3.997,1.219-6.21
			l2.582,1.603l-0.672,3.692c-0.473,3.142,0.235,5.015,1.044,7.347c0.421,1.209,0.288,1.415,1.149,2.268l0.284,0.265
			c0.023-0.044,0.097,0.094,0.147,0.138c-0.571-4.759-1.874-10.148-1.52-15.032l1.827,0.961c-0.122-1.687-0.741-6.89-0.333-7.902
			c-0.709-0.872-4.128-2.818-5.453-3.765l-0.76,0.117L199.267,213.001z"/>
		<path fill="#F9D737" d="M242.316,243.834c-0.581,1.538-1.686,3.015-2.478,4.148c-0.598,1.366-1.654,2.262-2.556,3.338
			c-0.894,1.065-1.853,2.139-3.116,2.778c-0.451,0.389-0.398,0.474-0.941,0.919c-0.346,0.283-0.801,0.667-1.223,0.961l-2.583,1.76
			v0.766c0.756-0.033,3.337-2.255,4.139-2.873l1.881-1.6c0.463-0.631,0.373-0.426,0.837-0.813c1.208-1.007,0.935-1.688,2.563-2.038
			c0.228-0.657,1.354-1.924,1.889-2.717c2.438-3.61,3.765-6.381,4.851-10.532c1.178-4.505,2.434-14.202,1.831-18.199l-0.122-2.358
			l-0.685-0.126l-0.207,12.313l-14.652-0.001l-2.325,0.014v1.427l2.325-0.002l14.342-0.035c-0.454,3.773-1.22,8.473-3.073,11.388
			l-13.594-0.015v1.239l9.666,0.004C241.511,243.578,241.603,243.423,242.316,243.834z M229.418,257.738l-0.036,0.025
			c-1.594-0.771-4.132-2.851-5.336-4.236c-3.899-3.07-4.96-5.552-7.525-9.894c4.291-0.049,8.57-0.052,12.861-0.055h0.036v-1.239
			l-13.612-0.017c-1.532-2.254-2.571-8.032-3.059-11.333l10.327,0.019l6.342-0.005v-1.427l-7.069,0.042l-9.815,0.033l-0.291-11.512
			c-0.174-0.903,0.478-1.006-0.709-0.747l-0.061,2.383c0.225,1.976,0.207,5.78,0.176,7.886c-0.027,1.779,0.464,5.441,0.937,7.267
			c-0.944-0.566,0.302-0.569-0.29-0.242l3.051,9.176c0.71,1.736,3.525,6.244,4.83,7.391c0.897,0.653,1.356,1.548,2.126,2.148
			c0.58,0.449,0.165,0.101,0.616,0.305c0.029,0.013,0.098,0.035,0.127,0.049c0.095,0.048,5.468,4.727,6.347,4.748h0.024v-0.766
			H229.418z"/>
		<path fill="#2B559A" d="M205.602,237.966c0.4,1.489,1.505,4.486,1.667,5.898l0.401,0.663c0.114,0.223,0.195,0.459,0.29,0.688
			l1.804,3.848l0.895,1.308l0.539-0.139c0.381-0.008,0.887,0.235,1.238,0.417l0.29,0.164c0.044,0.023,0.105,0.063,0.15,0.084
			c0.835,0.418,2.691,0.692,3.81,0.717c-1.139-1.771-2.296-3.155-3.327-5.264c-3.222-6.598-4.918-12.69-4.672-20.554l1.51,0.953
			l-0.559-8.319l-4.061-2.437c-0.408,1.011,0.211,6.214,0.333,7.902l-1.827-0.961C203.728,227.817,205.031,233.207,205.602,237.966z
			"/>
		<path fill="#2B559A" d="M249.14,218.415l-0.604,8.307l1.589-0.932c-0.765,18.569-6.006,20.861-7.175,24.834
			c1.743-0.006,2.005-0.374,3.37-0.86c0.559-0.198,0.927-0.281,1.479-0.491c0.855-0.325,0.635-0.538,1.396-0.601
			c0.379-0.999,0.887-1.753,1.294-2.807c0.341-0.883,0.724-1.994,1.14-2.783l1.317-4.342c0.313-2.457,0.936-4.766,1.22-7.369
			c0.268-2.456,0.504-5.521,0.548-7.858l0.122-0.209c-0.508-0.354,0.256-0.511-0.937-0.042c-0.231,0.09-0.641,0.396-0.996,0.562
			l0.431-7.382l0.047-0.362l-0.221-0.063L249.14,218.415z"/>
		<path fill="#C99528" d="M254.715,223.513c-0.045,2.337-0.281,5.403-0.547,7.858c-0.284,2.602-0.908,4.912-1.221,7.369
			c1.186-1.245,1.906-3.248,2.558-4.58c0.896-1.833-0.004-7.374-0.248-10.227l2.264-1.387c0.238,0.267,0.104,0.064,0.318,0.478
			c1.378,2.659,1.418,8.47,0.196,12.085c-0.398,1.177-0.466,1.651-0.975,2.691c-0.01,0.021-0.236,0.455-0.266,0.501l-0.327,0.426
			c-0.487,0.655-0.489,1.912-2.559,3.329c-0.523,0.359-1.237,0.849-1.543,1.536c-1.409,0.125-0.173,0.123-0.735-0.512
			c-0.417,0.79-0.8,1.901-1.14,2.784c-0.407,1.054-0.915,1.807-1.294,2.807c-0.284,0.186-0.492,0.648-0.814,1.153
			c0.571,0.088,0.463-0.02,0.896-0.198l3.052-1.226c0.625-0.556-0.075-0.65,1.519-1.456c0.875-0.442,2.008-1.348,2.766-2.014
			c0.04-0.033,0.089-0.084,0.129-0.119c1.107-0.964,0.704-0.307,1.292-1.525c0.023-0.049,0.056-0.112,0.08-0.161
			c1.11-2.273,0.414-1.057,1.759-2.906c0.403-0.555,0.421-1.023,0.621-1.841c1.038,0.604,0.197-0.23,0.59,0.745
			c0.359-3.268,0.696-6.126,0.736-9.532c0.041-3.381-0.583-6.968-0.521-10.061C259.183,220.154,256.9,222.621,254.715,223.513z"/>
		<path fill="#2C91CF" d="M231.299,222.813c-0.544,0.711-0.779,0.834-1.964,1.046v0.09l0.771,1.59
			c-0.121-0.233-0.358,0.45,0.004-0.715c0.353-1.135,1.082-1.295,2.446-2.107c-2.698,3.955-2.267,2.567-2.689,6.145l-0.532-1.413
			v2.129l2.408-0.014v-0.208c-0.689-0.096-0.716-0.212-1-0.734c-0.212-1.189-0.186-0.164-0.379-1.935
			c1.831-0.655,1.712-0.197,1.988,0.055c0.369-1.099-0.085-2.183,0.898-3.113c0.927-2.169,3.249-0.906,3.828-0.929l1.732-0.185
			c0.638-0.839,0.215-0.953,1.233-1.554l0.183-0.095c0.07-0.916,0.144-1.048,0.269-1.706c-0.739-0.542-0.295,0.003-0.734-0.868
			c-3.521,0.207-6.586-0.729-9.313-1.84c-0.353,0.76-0.298,0.843-1.116,0.862v0.662c0.139-0.009,0.285-0.012,0.442-0.011
			l1.686,0.333c-0.808,1.068,0.083,0.767,0.461,1.98C232.231,221.264,231.934,222.256,231.299,222.813z M229.335,223.859
			l-0.04,0.007l0.04,0.084V223.859L229.335,223.859z M229.335,227.449v2.129l-6.986,0.042c0.303-0.6-0.415-0.5,0.402-0.476
			l0.81,0.064c1.172,0.14,1.98-0.054,3.391-0.237l0.872-0.243c0.042-0.089,0.139-0.062,0.2-0.105
			c-0.775-1.468-0.711-1.875-1.159-2.315l-1.407-2.704c-0.793-1.544-1.681-1.252-3.45-0.945c-0.502,0.087-1.684,0.021-2.145-0.289
			c-0.765-0.513,0.001-0.662-1.163-1.402c-0.761-0.378-0.126,0.068-0.678-0.768c0.324-0.293,0.052,0.124,0.324-0.41l0.274-1.527
			c2.35,0.19,4.185-0.405,5.749-0.314c0.639-0.158,3.177-1.01,3.385-1.011c1.163-0.005-0.239,0.404,1.255,0.384l0.326-0.006v0.661
			c-0.689,0.037-1.169,0.142-1.731-0.064c-0.958,1.836-2.017,3.127-0.72,4.746c0.856,1.123,1.116,0.735,1.907,1.391l0.313,1.561
			l-2.991-1.951l1.144,2.234c0.836,0.8,1.041,0.547,1.88,1.028L229.335,227.449z"/>
		<path fill="#AE301C" d="M216.684,251.614c0.563,0.736,0.978,1.079,1.66,1.806c0.604-0.594,0.362-0.705,1.134-0.785
			c0.312-0.609,0.465-0.89,0.698-1.381c-1.305-1.148-4.12-5.655-4.83-7.391l-3.05-9.177c0.592-0.326-0.654-0.323,0.29,0.243
			c-0.471-1.826-0.964-5.488-0.937-7.267c0.032-2.106,0.05-5.911-0.176-7.886c-0.721-0.686-1.211-0.775-1.836-1.348l0.559,8.319
			l-1.51-0.953c-0.246,7.865,1.45,13.957,4.672,20.554C214.388,248.459,215.545,249.843,216.684,251.614z"/>
		<path fill="#2C91CF" d="M230.896,247.543c0.27,0.074,0.671-0.248,1.998,0.09c-0.728,1.367-1.941,0.885-3.734,0.887v1.152
			c2.147-0.091,3.691-1.389,4.89-0.261c0.284,0.267,0.521,0.586,0.803,0.879c0.826,0.856-0.13,0.344,0.835,0.649
			c-0.226-2.435-0.159-1.729,1.848-2.701c0.056-0.026,0.111-0.065,0.168-0.093c1.338-0.686,0.801-0.52,2.133-0.161
			c0.792-1.133,1.897-2.612,2.478-4.149l-13.157-0.012v3.754c0.282,0.002,0.688,0.029,1.348,0.143
			c0.269-1.378-0.215-0.659,0.563-1.802C230.573,246.608,230.709,246.553,230.896,247.543z M229.159,248.518h-0.021
			c-0.491,0.002-1.752,0.055-2.158-0.035c-0.564-0.126-1.053-0.585-1.558-0.941c0.228-0.59,0.259-0.479,1.046-1.146
			c0.091,0.148,0.357-0.186-0.307,0.704c0.77,0.02,0.663-0.01,1.304,0.183l0.641,0.222c0.439,0.137,0.574,0.067,1.051,0.07v-3.754
			l-10.224-0.008c1.234,2.064,0.656,0.655,1.328,1.939c1.474,2.82,4.43,2.408,6.169,3.298c1.005,0.513,1.908,0.653,2.725,0.62
			v-1.152H229.159z"/>
		<path fill="#AE301C" d="M247.409,219.735c0.603,3.997-0.652,13.694-1.831,18.199c-1.086,4.15-2.414,6.922-4.852,10.532
			c-0.534,0.792-1.661,2.06-1.889,2.717c-0.326,0.696-0.09,0.723,0.487,1.171c0.258,0.513,0.734,0.813,1.138,1.181
			c0.259-0.531,0.819-0.955,1.237-1.445c0.421-0.492,0.904-1.21,1.249-1.467c1.168-3.973,6.409-6.265,7.175-24.834l-1.589,0.932
			l0.604-8.307C248.353,219.059,247.978,219.015,247.409,219.735z"/>
		<path fill="#5B8D35" d="M221.798,204.205l0.321,0.631c0.285,0.504-0.372,0.841,0.988,0.258c-0.384,3.259,0.8,2.724-0.567,5.869
			l1.779,0.771l0.211,3.451l-3.432-0.392l-0.122,0.343c-0.114,0.532-0.429,1.267-0.081,1.655c0.674,0.75,0.786,0.119,1.515-0.112
			c0.212-0.067,0.216-0.081,0.586-0.125c0.873-0.105,0.341,0.296,1.535-1.063c0.042,0.053,0.078,0.085,0.094,0.176
			c0.132,0.733,0.622,0.673,0.625,0.673l0.033-1.26c1.222,0.977,0.074,0.83,1.718,0.993l0.538,0.484
			c-0.372,0.301,0.031,0.073-0.466,0.337c-0.957,0.508-2.001,0.304-2.704,1.054c0.639-0.158,3.177-1.01,3.385-1.011
			c1.163-0.005-0.239,0.404,1.255,0.384c1.163-0.017,1.047-0.02,1.44-0.869l0.462-1.908c0.037-0.011,0.125-0.037,0.165-0.05
			l0.383-0.186l-0.088-1.604l-0.147-1.341c-0.034-0.058-0.11-0.105-0.143-0.139c-0.822-0.822-0.745-0.454-0.733-1.329l1.09,0.777
			c-0.156-1.263-0.112-2.431-0.834-3.187c-0.525-0.548-0.515-0.089-0.783-0.695c0.975-0.228,0.428,0.701,0.763-0.186
			c0.027-0.073,0.127-0.031,0.188-0.057c-0.24-0.807-0.459-1.929-0.998-2.583c-0.5-0.606,0.056-0.142-0.635-0.55
			c-0.5,1.692-0.245,1.075-0.117,1.513c0.459,1.567-0.907,1.583-0.051,4.201c0.477,1.457,0.388-0.148,0.341,1.251l-0.341,3.137
			c-0.246,1.073-0.145,0.735-0.691,1.125l-0.919-2.416c-0.5-0.706-1.061-1.119-1.166-1.885c-0.415-3.014-1.77-2.947-2.26-4.434
			c0.842,0.846,0.735,0.875,1.42,1.255c-0.392-2.127-0.754-5.53-1.503-7.131c-1.431,0.18,0.061,0.022-0.948,1.277
			c-0.029,0.038-0.088,0.08-0.12,0.116C221.716,202.652,222.422,202.752,221.798,204.205z"/>
		<path fill="#2B559A" d="M239.763,218.295c0.439,0.872-0.005,0.327,0.735,0.868c-0.126,0.658-0.2,0.791-0.27,1.706
			c0.98-1.385,2.308-1.214,2.293,0.792c-0.013,1.827,0.537,1.267-0.082,2.542c-1.653,3.409,0.455,1.542-2.319,2.969
			c-0.786,0.405-0.55,0.607-1.212,1.016c-0.355,0.22-3.888,1.205-4.908,1.152c-2.08-0.107-0.406-0.066-2.257,0.016v0.208
			l14.652,0.001l0.207-12.313l0.686,0.126c0.228-0.225,0.24,0.297,0.336-0.851c-1.074-0.057-1.492-0.499-2.27-0.496
			c-0.943,0.002-0.789,0.363-1.648,0.935C242.575,217.722,241.158,218.003,239.763,218.295z"/>
		<path fill="#2B559A" d="M211.244,216.515c-0.073,1.481-0.015,0.589,0.289,0.878c1.188-0.257,0.536-0.155,0.709,0.749l0.291,11.511
			l9.815-0.033c0.303-0.6-0.415-0.5,0.402-0.476c-2.634-1.117-2.346-0.367-3.309-1.247c-1.996-1.823-2.028-0.469-2.588-1.989
			c-0.147-0.399-0.103-0.526-0.235-0.93c-0.706-2.162-0.641-0.287-0.406-2.728c0.125-1.288-0.344-2.488,1.811-2.052
			c0.324-0.293,0.052,0.124,0.324-0.41l0.274-1.527c-1.242-0.422-2.673-0.682-3.682-1.424
			C212.692,215.186,213.816,216.356,211.244,216.515z"/>
		<path fill="#F9D737" d="M248.833,212.374l-3.926-0.431c-0.25,0.335-0.071-0.006-0.271,0.558c-0.307,0.875-0.305,1.644-0.396,2.538
			l1.351,0.485l-2.177-0.087c-0.782,1.118-0.625,1.146-2.124,1.556c-3.127,0.853-5.565-0.098-9.235-0.833
			c0.565-0.192,1.607-0.489,2.334-0.712c1.572-0.485,1.19-0.421,2.646,0.047l-0.013-0.421c0.055-0.048,0.14-0.094,0.178-0.124
			c0.036-0.029,0.124-0.086,0.163-0.121c0.534-0.458,0.209-0.144,0.453-0.666c0.32-0.681,0.36-0.311,0.802-0.571
			c-0.546-1.296-0.464-0.802-0.264-1.986l-1.052-0.386l-0.886,0.065l-0.392-0.763c-0.4,1.685-0.5,0.934-1.969,1.625l-2.307,1.611
			c-0.51-0.6-0.193-0.191-0.377-1.054l0.088,1.604l-0.383,0.186c-0.04,0.013-0.127,0.039-0.165,0.049l-0.461,1.909
			c2.726,1.111,5.79,2.047,9.313,1.84c1.395-0.292,2.811-0.574,3.943-1.329c0.859-0.572,0.705-0.933,1.647-0.936
			c0.779-0.001,1.196,0.44,2.27,0.497c2.259-0.083,3.075-0.389,3.862-2.188c0.829-1.89,1.161-3.555-0.372-4.584l0.055,2.084
			C250.503,212.152,249.794,212.338,248.833,212.374z"/>
		<path fill="#5B8D35" d="M224.046,253.527c-0.006-0.943,0.453-0.904,1.281-1.37l0.902-1.302c0.572-0.537,0.428,0.099,1.629-0.497
			c0.84-0.416,2.39-0.636,3.506-0.18c0.618,0.252-0.638,0.573,1.958,0.002c0.448,0.877,0.088,2.226,0.518,2.853l0.243,0.251
			c0.025,0.026,0.095,0.077,0.137,0.122l-0.053,0.692c1.264-0.64,2.225-1.713,3.116-2.778c0.901-1.074,1.958-1.972,2.556-3.338
			c-1.333-0.358-0.796-0.524-2.133,0.161c-0.057,0.027-0.112,0.066-0.168,0.094c-2.007,0.973-2.072,0.267-1.848,2.701
			c-0.966-0.305-0.008,0.207-0.835-0.649c-0.283-0.293-0.52-0.612-0.803-0.879c-1.654-1.556-3.965,1.508-7.616-0.359
			c-1.739-0.89-4.695-0.478-6.17-3.298c-0.67-1.284-0.093,0.125-1.327-1.939l23.38,0.021c-0.714-0.41-0.805-0.256-3.231-0.25
			l-9.703-0.004c-4.292,0.003-8.571,0.005-12.861,0.055C219.085,247.975,220.146,250.457,224.046,253.527z"/>
		<path fill="#F2CB0A" d="M252.947,238.74l-1.317,4.342c0.562,0.634-0.674,0.636,0.735,0.511c0.306-0.688,1.02-1.176,1.543-1.536
			c2.069-1.417,2.072-2.674,2.559-3.329l0.327-0.426c0.03-0.046,0.256-0.479,0.266-0.501c0.509-1.039,0.578-1.515,0.975-2.691
			c1.221-3.615,1.182-9.427-0.196-12.085c-0.214-0.413-0.08-0.21-0.318-0.478l-2.264,1.387c0.244,2.853,1.145,8.394,0.248,10.227
			C254.853,235.492,254.132,237.495,252.947,238.74z"/>
		<path fill="#F2CB0A" d="M207.27,243.864c-0.163-1.412-1.267-4.409-1.667-5.898c-0.051-0.044-0.124-0.181-0.147-0.137l-0.284-0.266
			c-0.861-0.853-0.73-1.058-1.149-2.268c-0.809-2.33-1.517-4.204-1.044-7.347l0.672-3.692l-2.582-1.603
			c-0.433,2.213-1.189,3.427-1.219,6.21c-0.057,5.479,0.766,6.161,2.736,9.986l2.769,3.864c0.505,0.434,0.184,0.1,0.575,0.404
			c0.485,0.38,0.274,0.08,0.804,1.109C207.603,244.195,206.851,244.297,207.27,243.864z"/>
		<path fill="#F2CB0A" d="M248.381,249.824c-0.454,1.457-2.089,2.78-2.365,3.817l0.669,0.167c0.039-0.001,0.231-0.007,0.274-0.015
			c0.388-0.061-0.107,0.008,0.664-0.187c1.433-0.359,3.613-0.819,5.151-1.86l0.657-0.54c1.328-1,2.387-1.431,4.342-3.153
			c0.713-0.629-0.019-0.306,1.004-0.649c1.037-1.726,1.835-5.952,2.309-8.282c-0.394-0.976,0.447-0.142-0.59-0.746
			c-0.201,0.818-0.218,1.285-0.621,1.841c-1.346,1.849-0.65,0.632-1.759,2.905c-0.024,0.049-0.056,0.112-0.08,0.162
			c-0.589,1.218-0.186,0.561-1.293,1.525c-0.04,0.033-0.089,0.085-0.128,0.118c-0.758,0.666-1.892,1.572-2.766,2.014
			c-1.596,0.806-0.895,0.9-1.519,1.456l-3.052,1.226C248.844,249.805,248.952,249.912,248.381,249.824z"/>
		<path fill="#F2CB0A" d="M197.301,235.71c-0.032,2.909,1.032,7.196,1.895,9.735c2.001,1.307,0.581,1.375,4.083,3.512l1.679,1.201
			l6.519,2.832c1.776,0.206-0.034,0.553,0.756-0.234c-0.532-0.591-1.235-1.604-1.574-2.386l-0.896-1.308
			c-1.256-0.328-3.387-1.478-4.418-2.234c-1.873-1.371-2.173-2.086-3.278-3.264c-1.545-1.65-1.399-1.477-2.704-3.861
			c-0.637-1.167-1.67-3.25-1.837-4.735L197.301,235.71z"/>
		<path fill="#F2CB0A" d="M253.335,216.442l-0.431,7.381c0.355-0.166,0.765-0.471,0.996-0.562c1.192-0.47,0.43-0.311,0.937,0.042
			l6.396-4.29l-0.027-0.4l-1.451,0.799l-0.455-6.648C257.656,213.234,255.069,215.588,253.335,216.442z"/>
		<path fill="#AE301C" d="M230.45,258.692L230.449,261c0.873,2.189,0.13,5.304,0.808,7.564l0.742-0.14l2.723-0.218l-0.531-2.762
			l3.073-0.321c-0.502-1.173-1.374-2.428-2.001-3.805c-0.695-1.531-1.267-2.907-1.782-4.577c-0.571-0.093-0.28-0.139-0.767,0.195
			c-0.206,0.143-0.156,0.143-0.385,0.326C231.745,257.732,230.922,258.494,230.45,258.692z"/>
		<path fill="#C99528" d="M240.228,220.87l-0.183,0.095l1.271,0.054l-0.301,2.755l-1.09,0.588c-0.517,0.425-0.04,0.912-1.841,0.426
			c-1.898-0.51-0.718,0.104-1.681-0.993c-1.113-1.269-1.904-0.487-3.152-0.163c-0.983,0.929-0.529,2.012-0.898,3.113
			c0.801,0.425,0.613,1.137,0.423,1.878c-0.795,0.329-1.313,0.432-2.033,0c0.283,0.522,0.31,0.64,1,0.735
			c1.852-0.082,0.177-0.124,2.257-0.016c1.02,0.052,4.552-0.932,4.908-1.152c0.66-0.409,0.426-0.611,1.212-1.016
			c2.774-1.427,0.667,0.44,2.319-2.97c0.619-1.275,0.068-0.715,0.082-2.542C242.536,219.655,241.208,219.485,240.228,220.87z"/>
		<path fill="#C9D1D4" d="M229.227,238.213l-0.572-0.033l-0.479,0.845l-1.805-0.307c0.64-1.853,0.385-1.059,0.449-3.329
			l-0.794-0.061c-0.164-2.028,0.406-2.112,1.818-2.905c1.187-0.667,1.987-0.951,3.453-0.743c0.578-0.396,0.225-0.078,0.447-0.675
			l-8.668,0.006c-0.262,1.231-0.198,0.927,0.323,1.397c0.53,0.477,0.071-0.422,0.316,0.341v8.106l0.902,0.295l-0.908,0.911
			l5.431,0.39l0.013-1.2C229.144,240.301,229.074,239.088,229.227,238.213z"/>
		<path fill="#F9D737" d="M211.244,216.515c2.571-0.159,1.448-1.329,3.695,0.325c1.009,0.742,2.438,1.002,3.682,1.424
			c2.35,0.189,4.185-0.405,5.749-0.314c0.703-0.75,1.748-0.546,2.704-1.053c0.498-0.266,0.096-0.037,0.466-0.339l-0.538-0.483
			c-1.644-0.164-0.496-0.017-1.718-0.993l-0.033,1.261c-0.851,1.038-4.993,1.16-6.159,1.044c-3.476-0.348-2.842-1.369-3.871-1.775
			c-0.637-0.25-0.924-0.004-1.417-0.328l1.271-0.738l-0.247-1.436l0.568,0.648l0.414-1.011c-1.464-0.202-1.108,0.048-1.196-0.876
			L213.673,212l-3.458,0.4l-1.976-0.322l0.065-2.634c-1.723,0.967-1.745,2.182-0.937,4.319
			C208.174,215.894,208.637,216.343,211.244,216.515z"/>
		<path fill="#F2CB0A" d="M226.532,268.449l0.783,0.315c0.382-1.373,0.734-6.376,0.515-7.754c-0.878,0.002-0.312,0.454-0.917-0.656
			l-0.434-1.209c-0.78-1.618-0.448-0.171-1.742-1.172c-0.326,0.458-1.18,2.73-1.54,3.515c-0.667,1.448-1.599,2.787-1.581,3.662
			l2.737,0.269l-0.317,2.818L226.532,268.449z"/>
		<path fill="#2B559A" d="M226.532,268.449l-0.045,2.364c1.379,0.496,4.254,0.383,5.633-0.007l-0.125-2.38l-0.742,0.14
			c-0.678-2.26,0.065-5.375-0.808-7.564c-0.266,0.445-0.276,0.849-1.308,0.8c-1.156-0.055-0.825-0.121-1.127-0.79h-0.183
			c0.219,1.377-0.133,6.38-0.515,7.753L226.532,268.449z"/>
		<path fill="#AE301C" d="M226.026,235.328c1.455-0.282,1.753-1.156,3.29-1.341c-0.281,0.737-0.213,1.414-0.17,2.364
			c0.034,0.75-0.035,1.148,0.081,1.862l0.979,0.037l0.393,1.652l3.961,0.971c-0.532-1.461-0.897-0.397-1.235-1.863
			c-0.313-1.361-0.146-4.684-1.339-6.46l-0.689-0.869c-1.465-0.208-2.266,0.077-3.453,0.743
			C226.432,233.215,225.862,233.298,226.026,235.328z"/>
		<path fill="#FAF1D1" d="M213.673,211.999l0.941-0.127c0.088,0.923-0.269,0.674,1.196,0.876l-0.414,1.01l-0.568-0.647l0.247,1.436
			l-1.271,0.738c0.494,0.324,0.78,0.078,1.417,0.328c1.029,0.405,0.396,1.427,3.871,1.774c1.165,0.116,5.308-0.007,6.159-1.044
			c-0.003,0-0.492,0.059-0.625-0.673c-0.016-0.091-0.053-0.124-0.094-0.176c-1.194,1.358-0.662,0.957-1.535,1.063
			c-0.37,0.044-0.374,0.057-0.586,0.125c-0.729,0.231-0.841,0.862-1.515,0.112c-0.35-0.389-0.033-1.122,0.081-1.655
			c0.005-1.058-0.292-0.24,0.266-0.901l-0.145-1.819c0.118-0.723,0.24-0.684,0-1.234l0.958,0.021
			c-0.261-0.212-0.183-0.218-0.674-0.391c-0.833-0.292-1.638-0.132-2.672-0.07c-0.983,1.236-0.817,2.474-0.402,3.8l-1.566,0.288
			l0.021-0.543l0.977-0.218l-0.969-0.971l1.212-1.209l-1.697,0.291l-0.244-0.964c-0.466,0.043-0.919,0.043-1.363,0.182
			C213.645,211.721,214.119,211.586,213.673,211.999z"/>
		<path fill="#58AAD5" d="M224.046,253.527c2.778,0.232,1.472-0.111,2.334,0.624c0.965,0.822,1.275,0.621,2.758,0.612
			c1.001-0.006,2.333,0.138,3.069-0.233c1.821-0.924-0.468-1.118,2.011-1.123c-0.043-0.044-0.111-0.096-0.137-0.122l-0.243-0.251
			c-0.429-0.626-0.069-1.976-0.518-2.853c-2.595,0.571-1.34,0.25-1.958-0.002c-1.116-0.457-2.666-0.236-3.506,0.18
			c-1.201,0.596-1.057-0.041-1.629,0.497l-0.902,1.302C224.499,252.624,224.04,252.584,224.046,253.527z"/>
		<path fill="#C99528" d="M222.752,229.145l0.81,0.064l-0.011-0.717l-1.084,0.13l-1.064-1.938c1.411,0.334,0.346,0.303,1.635-0.575
			c0.072-0.048,0.423-0.288,0.439-0.298c0.89-0.567,0.399-0.561,2.508-0.122c-0.255-2.028-0.8-1.675-1.131-2.153
			c-1.039-0.925-1.928-0.269-2.605,0.403c-1.061,1.049-0.088,0.484-1.166,0.733l-0.44,0.102c-0.046,0.013-0.116,0.041-0.164,0.054
			c-1.045,0.297-0.305,0.541-1.762-0.582c-0.354-0.257-0.464-0.177-0.957-0.473c-0.087-1.218-0.341-2.045-0.285-2.717l1.225-0.086
			c-0.761-0.379-0.126,0.067-0.678-0.769c-2.154-0.436-1.686,0.764-1.811,2.052c-0.233,2.44-0.298,0.565,0.406,2.728
			c0.132,0.404,0.088,0.531,0.235,0.929c0.561,1.521,0.592,0.167,2.588,1.989C220.405,228.777,220.118,228.027,222.752,229.145z"/>
		<path fill="#5B8D35" d="M222.566,195.742c-0.29,0.252-0.153-0.313-0.592,0.772c-0.175,0.433-0.127,0.584-0.161,1.062l0.639,0.243
			l-0.347,3.553l1.325-3.225l0.421,1.888l0.658,0.176l0.221-1.746c-0.063,0.486,0.514,1.039,1.032,1.521
			c0.825,0.771,0.488,0.707,0.902,1.958c0.374,1.136,0.726,1.179,0.907,1.998c0.294,1.321-0.195,1.231,0.839,2.388
			c1.318-1.696-0.674-4.102-0.729-5.997l-1.169-0.905c-0.115-0.078,0.072,0.748-0.303-0.298l0.018-0.492l2.187,1.371
			c-0.296-2.239-0.951-0.213-0.957-3.099c-1.337-0.266-0.236-0.154-1.316-0.973c-0.839-0.548-1.338-0.783-1.491-2.134
			c-0.959,0.871-0.785,0.5-1.817,0.864l1.206,0.891L222.566,195.742z"/>
		<path fill="#2C91CF" d="M242.95,250.623c-0.345,0.256-0.828,0.975-1.249,1.467c-0.418,0.489-0.979,0.913-1.237,1.445
			c0.378,0.463,0.237,0.306,0.675,0.699c0.301,0.271,0.469,0.396,0.817,0.63c0.548,0.371,1.018,0.64,1.738,0.896
			c0.739-0.671,1.287-1.637,2.321-2.118c0.276-1.037,1.912-2.361,2.365-3.817c0.323-0.505,0.53-0.968,0.814-1.153
			c-0.762,0.063-0.541,0.274-1.396,0.6c-0.553,0.21-0.92,0.293-1.479,0.492C244.956,250.249,244.694,250.617,242.95,250.623z"/>
		<path fill="#FAF1D1" d="M227.683,200.332c1.788,0.408,0.549,2.109,3.335,0.928c0.643-0.273,1.858-0.264,2.215-1.55
			c0.42-1.509-0.514-1.899-0.668-2.904l-2.551-0.551c0.381,0.857,0.758,1.078,0.759,2.048l-2.119,0.526l-0.742-2.212
			c-0.263-0.552-1.37-1.128-1.769-0.68c1.08,0.819-0.021,0.707,1.316,0.973c0.006,2.886,0.661,0.86,0.957,3.099l-2.188-1.371
			l-0.018,0.492c0.375,1.047,0.188,0.22,0.303,0.298L227.683,200.332z"/>
		<path fill="#2C91CF" d="M212.232,252.755c0.99,0.86,1.882,2.04,2.625,3.029l0.689-0.22c1.117-0.597,2.198-1.192,2.798-2.144
			c-0.681-0.727-1.097-1.071-1.66-1.806c-1.119-0.025-2.975-0.299-3.81-0.717c-0.045-0.021-0.106-0.062-0.15-0.084l-0.29-0.164
			c-0.35-0.183-0.857-0.425-1.238-0.417l-0.539,0.139C210.997,251.151,211.701,252.164,212.232,252.755z"/>
		<path fill="#D1B151" d="M222.566,195.742l1.474-0.186l-1.206-0.891c1.032-0.363,0.858,0.007,1.817-0.864
			c0.152,1.351,0.653,1.585,1.491,2.134c0.399-0.449,1.507,0.126,1.77,0.68l0.742,2.212l2.119-0.526c0-0.97-0.378-1.191-0.759-2.048
			c-1.669-1.037-0.704-1.918-2.01-3.193c-1.174,0.064-1.553,0.56-1.979,0.506c-0.016-0.001-0.076-0.025-0.091-0.03
			c-0.04-0.011,0.02,0.001-0.2-0.101c-0.598-0.28-2.632,0.537-3.377,0.744L222.566,195.742z"/>
		<path fill="#D1B151" d="M223.562,229.208c1.172,0.14,1.98-0.054,3.391-0.237l0.872-0.243c0.042-0.089,0.139-0.062,0.2-0.105
			c-0.775-1.468-0.711-1.875-1.159-2.315l-1.407-2.704l-0.604-0.068c0.332,0.48,0.876,0.125,1.131,2.153
			c-2.109-0.439-1.618-0.445-2.508,0.122c-0.016,0.01-0.368,0.25-0.44,0.299c-1.288,0.877-0.223,0.908-1.634,0.575l1.064,1.938
			l1.084-0.131L223.562,229.208z"/>
		<path fill="#C9D1D4" d="M224.046,253.527c1.205,1.386,3.743,3.466,5.336,4.236l2.62-1.786c0.422-0.294,0.877-0.678,1.223-0.961
			c0.542-0.445,0.489-0.53,0.941-0.919l0.053-0.692c-2.479,0.005-0.19,0.2-2.011,1.124c-0.735,0.371-2.067,0.228-3.069,0.233
			c-1.483,0.009-1.793,0.21-2.758-0.612C225.517,253.416,226.823,253.76,224.046,253.527z"/>
		<path fill="#D1B151" d="M226.884,222.661l0.8,0.015c0.348-0.463,0.245-0.291,0.375-1.109l-0.069-1.747
			c0.391-0.401,0.116,0.306,1.167-1.277c0.768,0.454,0.606,0.021,0.763,0.875c0.514,1.3,0.51-0.386,0.343,3.421l1.036-0.024
			c0.635-0.557,0.932-1.549,0.625-2.534c-0.378-1.213-1.269-0.912-0.46-1.98l-1.686-0.333c-0.943-0.006-1.498,0.195-2.173-0.051
			C226.647,219.75,225.587,221.042,226.884,222.661z"/>
		<path fill="#EED1AF" d="M233.251,223.63c1.248-0.325,2.041-1.107,3.152,0.163c0.962,1.098-0.217,0.484,1.681,0.993
			c1.803,0.484,1.324-0.001,1.841-0.426l1.09-0.589l0.302-2.755l-1.272-0.053c-1.019,0.599-0.596,0.714-1.232,1.553l-1.733,0.185
			C236.501,222.725,234.179,221.462,233.251,223.63z"/>
		<path fill="#EED1AF" d="M224.854,223.536l0.604,0.068c-0.793-1.544-1.681-1.252-3.45-0.945c-0.502,0.087-1.684,0.021-2.145-0.289
			c-0.765-0.514,0.001-0.663-1.163-1.402l-1.225,0.086c-0.058,0.671,0.196,1.499,0.285,2.717c0.492,0.296,0.602,0.216,0.957,0.473
			c1.457,1.123,0.716,0.879,1.762,0.582c0.048-0.013,0.116-0.041,0.164-0.054l0.44-0.102c1.078-0.249,0.105,0.316,1.166-0.733
			C222.926,223.267,223.814,222.611,224.854,223.536z"/>
		<path fill="#F2CB0A" d="M243.694,255.76c-0.72-0.257-1.19-0.525-1.738-0.896c-0.349-0.235-0.517-0.359-0.817-0.63
			c-0.438-0.394-0.297-0.235-0.675-0.699c-0.404-0.367-0.879-0.667-1.138-1.181c-1.127,0.678-1.128,1.416-1.559,2.952l0.645,0.458
			c0.572,0.327,0.191,0.134,0.685,0.308c1.788,0.63,3.786,0.467,5.664,0.519L243.694,255.76z"/>
		<path fill="#EED1AF" d="M237.303,211.222l1.052,0.386c-0.201,1.182-0.282,0.689,0.263,1.985c-0.443,0.261-0.483-0.11-0.801,0.571
			c-0.245,0.522,0.082,0.208-0.454,0.666c-0.04,0.035-0.127,0.092-0.163,0.121c-0.038,0.03-0.123,0.076-0.178,0.124l3.862-0.523
			c1.083-0.431,0.343,0.025,0.86-1.539l0.492-0.883l-1.542-0.001l-0.155-1.154c-1.874-0.164-1.833,0.175-3.11-0.782L237.303,211.222
			z"/>
		<path fill="#E36758" d="M261.205,218.614l0.028,0.4l-0.074,0.788l2.882,0.058c0.857-0.915,1.666-2.343,2.331-3.471
			c-0.977,0.305-1.101,0.351-2.056,0.089c-0.64-0.176-0.41-0.21-1.091-0.093C261.522,216.676,261.57,217.078,261.205,218.614z"/>
		<path fill="#E36758" d="M253.161,216.017l0.222,0.063l5.625-3.641c0.754,0.534-0.583,0.702,2.811,0.571
			c1.045-1.226,1.204-1.537,2.073-2.948c-2.741,0.46-0.586,0.617-4.109,0.231c-1.071,2.057,0.408,0.97-2.937,3.096
			C255.729,214.099,253.78,215.127,253.161,216.017z"/>
		<path fill="#E36758" d="M226.884,222.661c0.856,1.123,1.116,0.736,1.908,1.391l0.504-0.187c1.221-0.216,1.453-0.333,2.003-1.053
			l-1.036,0.024c0.167-3.808,0.17-2.121-0.344-3.421c-0.157-0.854,0.005-0.421-0.763-0.875c-1.051,1.583-0.776,0.875-1.167,1.276
			l0.069,1.748c-0.13,0.818-0.026,0.645-0.375,1.108L226.884,222.661z"/>
		<path fill="#95682C" d="M247.456,209.228c0.174,1.555,0.783,1.843,1.375,3.146c0.962-0.036,1.671-0.222,2.337-0.536l-0.055-2.084
			c-0.536-0.474-1.032-0.841-1.432-1.393C248.364,208.424,248.172,208.608,247.456,209.228z"/>
		<path fill="#F9E870" d="M202.042,205.097c0.027,0.041,0.063,0.061,0.072,0.128l0.337,1.513l-2.292-0.116
			c0.818,2.11,1.348,1.918,4.08,2.79c-0.031-3.619,0.296-2.771-0.978-4.097C202.651,204.601,202.812,203.775,202.042,205.097z"/>
		<path fill="#F2CB0A" d="M218.344,253.42c-0.6,0.951-1.682,1.546-2.798,2.144c-0.169,0.144-0.359-0.241-0.225,0.278l0.234,0.433
			l5.094-0.809l0.201-0.616c0.04-0.599-0.552-1.683-0.733-1.896c-0.444-0.527,0.039-0.499-0.64-0.319
			C218.706,252.716,218.948,252.826,218.344,253.42z"/>
		<path fill="#D14E33" d="M226.026,235.328l0.794,0.061c-0.063,2.271,0.191,1.477-0.448,3.329l1.805,0.307l0.479-0.845l0.572,0.033
			c-0.116-0.714-0.047-1.113-0.081-1.862c-0.042-0.95-0.111-1.627,0.17-2.364C227.779,234.172,227.481,235.046,226.026,235.328z"/>
		<path fill="#E36758" d="M199.267,213.001l0.096-0.657l0.76-0.117c-1.359-0.85-0.496-2.815-3.226-2.063
			c-0.827,0.229-0.76,0.155-1.851,0.101c0.43,1.272,0.525,0.98,1.416,2.276C197.251,213.688,197.6,213.018,199.267,213.001z"/>
		<path fill="#95682C" d="M208.305,209.442l-0.064,2.634l1.975,0.322c0.571-1.412,1.146-1.439,1.373-3.18
			c-0.599-0.505-1.078-1-2.31-0.725L208.305,209.442z"/>
		<path fill="#D14E33" d="M197.303,219.71l0.096-1.314l-0.526-1.58c-2.669-0.355,1.124,1.098-4.205,0.06l2.082,3.017L197.303,219.71
			z"/>
		<path fill="#D1B151" d="M229.296,223.866l-0.504,0.187l0.313,1.561l-2.99-1.952l1.144,2.235c0.835,0.8,1.041,0.547,1.88,1.029
			l0.729,1.936c0.422-3.578-0.009-2.189,2.689-6.145c-1.365,0.813-2.094,0.973-2.446,2.107c-0.362,1.165-0.125,0.481-0.004,0.715
			L229.296,223.866z"/>
		<path fill="#F9D737" d="M247.456,209.228c0.716-0.62,0.908-0.803,2.226-0.865l2.476,0.1l-0.041-2.524
			c-1.433-0.279-2.183-0.495-3.097,0.598C248.451,207.218,247.767,208.219,247.456,209.228z"/>
		<path fill="#F9E870" d="M256.05,205.021l-1.844,1.53l0.001,2.775l4.717-2.743l-2.314-0.032c0.03-0.283-0.02-0.332,0.092-0.563
			c0.223-0.463,0.103-0.204,0.358-0.482c-0.296-0.343-0.048-0.035-0.268-0.444c-0.028-0.053-0.151-0.235-0.169-0.351
			c-0.014-0.098-0.05-0.126-0.08-0.188L256.05,205.021z"/>
		<path fill="#231F20" d="M230.896,247.543c-0.187-0.989-0.323-0.935,0.173-1.626c-0.778,1.143-0.294,0.423-0.563,1.802
			c-1.773-0.301-1.698,0.005-2.399-0.213l-0.641-0.222c-0.641-0.192-0.534-0.163-1.304-0.183c0.665-0.89,0.398-0.556,0.307-0.704
			c-0.787,0.667-0.819,0.556-1.046,1.146c0.505,0.356,0.992,0.815,1.559,0.941c0.405,0.09,1.667,0.037,2.157,0.036
			c1.804-0.006,3.023,0.484,3.754-0.887C231.568,247.294,231.165,247.617,230.896,247.543z"/>
		<path fill="#F9D737" d="M209.278,208.494c1.231-0.274,1.711,0.219,2.31,0.725c-1.032-2.927-1.826-2.653-4.309-3.39l0.003,2.599
			C208.178,208.347,208.601,208.108,209.278,208.494z"/>
		<path fill="#0C375D" d="M228.013,261.011c0.301,0.669-0.029,0.736,1.127,0.79c1.032,0.049,1.042-0.354,1.308-0.8l0.001-2.309
			c-1.76,0.57-0.567,0.535-2.297-0.198L228.013,261.011z"/>
		<path fill="#F9D737" d="M222.056,211.204l-0.958-0.021c0.239,0.55,0.118,0.51,0,1.234l1.289,0.008l0.067,1.422
			c0.143-0.893,0.032-0.408,0.498-0.849l1.061-1.03l0.169,2.69c-0.342,0.021-0.815,0.092-1.165,0.007
			c-0.078-0.019-0.141-0.044-0.212-0.07c-0.617-0.228-0.037-0.604-1.563-0.36c-0.559,0.66-0.261-0.156-0.266,0.901l0.122-0.343
			l3.432,0.392l-0.211-3.452l-1.779-0.77C222.294,211.147,222.463,211.081,222.056,211.204z"/>
		<path fill="#95682C" d="M221.098,212.417l0.145,1.819c1.526-0.243,0.947,0.133,1.563,0.36c0.071,0.026,0.134,0.05,0.212,0.069
			c0.35,0.084,0.823,0.015,1.165-0.007l-0.169-2.69l-1.061,1.03c-0.466,0.443-0.356-0.043-0.498,0.849l-0.067-1.422L221.098,212.417
			z"/>
		<path fill="#E36758" d="M230.744,228.622c0.72,0.432,1.238,0.329,2.033,0c0.19-0.742,0.378-1.453-0.423-1.878
			c-0.276-0.253-0.157-0.711-1.988-0.056C230.56,228.459,230.531,227.434,230.744,228.622z"/>
	</g>
	<path fill="#27BDB2" d="M214.742,169.527c-0.188-1.264-0.81-1.174-2.018-0.965c-0.069,0.84,0.213,1.929,0.649,2.528
		C214.326,170.896,214.917,170.691,214.742,169.527z"/>
	<path fill="#27BDB2" d="M197.666,175.016c0.369,0.896,0.729,1.564,1.406,2.21l0.843-0.414l0.076-1.349l-0.966-0.948
		L197.666,175.016z"/>
	<path fill="#27BDB2" d="M255.035,281.926l0.872,2.155C258.787,283.204,256.996,280.814,255.035,281.926z"/>
	<path fill="#FFFFFF" d="M220.817,164.13c1.254,0.309,0.6,0.783,2.446-1.729l-1.158-0.535c-0.173,0.16-0.18,0.122-0.383,0.397
		C221.304,162.832,220.997,163.447,220.817,164.13z"/>
	<path fill="#27BDB2" d="M266.013,275.608l1.417-1.14c-0.479-0.623-1.744-1.334-2.544-1.626L266.013,275.608z"/>
	<path fill="#27BDB2" d="M253.27,278.532c0.481,1.014,0.627,1.605,1.097,2.165C256.4,280.032,254.747,277.596,253.27,278.532z"/>
	<path fill="#27BDB2" d="M230.413,168.455c2.049,0.133,2.073-2.391,0.063-2.077L230.413,168.455z"/>
	<path fill="none" d="M319.849,162.429c-3.17,0-6.052,1.291-8.144,3.37c-2.09,2.08-3.388,4.948-3.388,8.102v110.385
		c0,3.153,1.298,6.021,3.388,8.101c2.092,2.08,4.974,3.37,8.144,3.37h184.538h184.537c3.17,0,6.053-1.29,8.143-3.37
		c2.092-2.08,3.39-4.948,3.39-8.101V173.901c0-3.154-1.298-6.022-3.39-8.102c-2.09-2.08-4.973-3.37-8.143-3.37"/>
	<path d="M682.672,240.825c-2.234-0.285-4.471-0.562-6.709-0.832c0.358,4.779-1.608,5.77-6.082,6.156
		c-4.704,0.404-6.605-1.921-7.141-5.823l-6.543,0.09c-0.449,8.786,4.939,11.616,13.195,11.618
		C677.605,252.037,682.869,249.424,682.672,240.825L682.672,240.825z M634.248,235.804c-2.292-0.184-4.583-0.362-6.877-0.53
		l-0.158,7.169c-0.104,4.721,2.328,8.532,10.205,9.422c8.045,0.99,17.16-1.111,16.346-11.048l-6.579,0.042
		c-0.272,2.672-0.771,3.765-2.872,4.649c-2.697,1.134-9.533,1.428-10.292-3.562C633.661,239.581,634.021,237.724,634.248,235.804
		L634.248,235.804z M618.219,234.641c-2.23-0.144-4.462-0.28-6.694-0.41l-0.024,6.043c-0.036,8.499,5.836,10.972,13.444,11.091
		l0.002-5.75c-5.327-0.654-6.753-1.618-6.741-5.8L618.219,234.641L618.219,234.641z M593.343,233.324
		c-2.221-0.092-4.442-0.176-6.665-0.254l-0.001,18.354l6.671-0.12L593.343,233.324L593.343,233.324z M584.327,232.989
		c-2.195-0.073-4.392-0.137-6.591-0.195l-0.017,8.278c-0.006,3.184-1.81,5.072-6.81,5.083c-4.485,0.007-6.568-1.538-6.566-4.284
		l0.01-9.354c-2.186-0.032-4.37-0.058-6.557-0.077l0.021,9.555c0.006,2.138,0.479,4.017,1.129,5.143
		c1.922,3.328,6.564,4.881,11.964,4.896c5.455,0.016,9.87-1.292,12.153-4.706c0.68-1.015,1.215-3.075,1.227-5.566L584.327,232.989
		L584.327,232.989z M555.295,232.423c-2.66-0.017-5.322-0.026-7.984-0.022c-2.193,1.585-6.099,2.164-8.192,2.707
		c-1.282,0.333-2.7,0.402-3.349,1.32l-0.022-3.953c-2.239,0.025-4.479,0.057-6.72,0.096l0.023,18.995l6.586-0.004l0.036-7.329
		c0.2-5.166,11.522-4.471,16.921-7.969C554.063,235.31,554.938,234.001,555.295,232.423L555.295,232.423z M509.058,233.092
		c-2.951,0.103-5.905,0.219-8.86,0.345l-0.084,7.558c-0.104,9.447,6.785,11.457,15.012,11c9.111-0.636,12.025-4.885,11.428-11.182
		l-6.521-0.002c-0.521,2.743-0.875,4.035-3.376,4.871c-2.321,0.777-5.317,0.608-7.393-0.293c-2.326-1.009-2.511-2.981-2.509-6.092
		C506.756,235.65,506.846,234.914,509.058,233.092L509.058,233.092z M497.592,233.553c-2.143,0.097-4.283,0.2-6.428,0.307
		l0.027,6.859c0.01,2.373-0.895,4.138-3.137,4.978c-2.887,1.077-8.854,1.368-10.109-3.978l0.019-7.115
		c-2.247,0.14-4.495,0.284-6.745,0.437l-0.004,5.725c0.023,4.242,0.338,6.192,2.925,8.461c4.019,3.525,13.966,3.695,18.718,1.283
		c1.984-1.009,4.994-3.827,4.695-6.963L497.592,233.553L497.592,233.553z M468.809,235.21c-2.189,0.152-4.378,0.311-6.568,0.477
		l-0.004,15.738h6.616L468.809,235.21L468.809,235.21z M459.854,235.87c-2.195,0.17-4.391,0.347-6.586,0.53l-0.009,4.672
		c-0.007,3.184-1.812,5.072-6.811,5.082c-4.486,0.008-6.568-1.537-6.566-4.283l0.004-4.283c-2.179,0.205-4.359,0.416-6.538,0.633
		l0.008,3.773c0.005,2.138,0.479,4.018,1.129,5.144c1.921,3.328,6.566,4.881,11.964,4.896c5.456,0.015,9.869-1.292,12.153-4.706
		c0.68-1.015,1.213-3.075,1.227-5.566L459.854,235.87L459.854,235.87z M411.301,240.624c-2.256,0.267-4.514,0.539-6.771,0.819
		l-0.004,1.727c0.139,0.821-0.426-0.35,0.277,0.774c-0.215,3.088,2.687,5.546,4.766,6.543c2.873,1.378,6.375,1.702,9.987,1.512
		c8.303,0.159,11.671-4.322,11.382-11.678l-6.426,0.049c-0.575,4.209-1.6,5.626-6.164,5.774c-4.187,0.137-6.758-0.791-7.047-4.855
		V240.624z"/>
</g>
</svg>
