<?xml version="1.0" encoding="utf-8"?>
<!-- Generator: Adobe Illustrator 16.0.0, SVG Export Plug-In . SVG Version: 6.00 Build 0)  -->
<!DOCTYPE svg PUBLIC "-//W3C//DTD SVG 1.1//EN" "http://www.w3.org/Graphics/SVG/1.1/DTD/svg11.dtd">
<svg version="1.1" id="Layer_1" xmlns="http://www.w3.org/2000/svg" xmlns:xlink="http://www.w3.org/1999/xlink" x="0px" y="0px"
	 width="388.667px" height="173.819px" viewBox="314.581 124.553 388.667 173.819"
	 enable-background="new 314.581 124.553 388.667 173.819" xml:space="preserve">
<g>
	<path fill="#FDD207" d="M376.488,136.202c-0.184,0.609-1.44,2.591-1.847,3.245c-4.262,6.864-9.139,15.54-13.385,22.661
		c-5.209,8.736-10.251,17.227-15.25,26.087c0.927-0.214,4.847-2.568,6.1-3.226c12.055-6.329,27.373-11.305,40.869-13.904
		c0.568-0.109,6.818-1.246,7.385-1.194c1.23,0.11-1.004-0.246,0.334,0.063l0.332,0.121c3.837-10.643,20.179-33.128,26.631-45.502
		c-16.139,1.343-33.52,3.783-48.358,10.437c-0.512,0.229-0.873,0.375-1.414,0.587L376.488,136.202z"/>
	<path fill="#F49C1E" d="M327.063,252.322c0.346-4.743,0.865-9.737,1.32-14.577c0.264-2.808,0.486-4.215,1.386-6.667
		c0.934-2.547,2.003-3.787,2.659-5.329c-0.408-0.161-0.557-0.53-0.875-1.098l-2.193-4.358c-0.436-0.882-0.836-1.951-1.203-2.983
		c-0.43-1.205-0.718-1.959-1.098-3.271c-0.343-1.186-0.58-2.068-0.873-3.321c-0.154-0.665-0.411-0.979-0.04-1.621l0.927-1.29
		c1.246-1.735,1.722-2.041,2.975-3.396c3.996-4.32,7.793-7.555,12.638-10.843c3.484-2.365,5.653-3.668,9.373-5.734
		c9.216-5.118,19.177-8.539,29.3-11.474c7.553-2.19,10.35-2.52,17.505-3.974c1.18-0.241,1.002-0.288,2.165-2.332l-0.332-0.122
		c-1.338-0.309,0.895,0.047-0.334-0.063c-0.566-0.052-6.816,1.085-7.385,1.194c-13.497,2.6-28.814,7.576-40.87,13.904
		c-1.253,0.657-5.172,3.013-6.1,3.226c4.999-8.861,10.042-17.352,15.251-26.088c4.246-7.122,9.123-15.797,13.385-22.661
		c0.406-0.655,1.662-2.635,1.846-3.245c-0.847,0.208-3.047,1.224-3.982,1.64c-4.631,2.067-7.273,3.735-11.47,6.004
		c-0.62,0.336-1.244,0.712-1.82,1.092l-5.278,3.459c-5.046,3.361-10.045,7.597-14.247,11.963l-2.729,3.096
		c-0.474,0.485-0.862,1.043-1.306,1.607c-4.598,5.849-8,11.483-10.366,18.575c-0.88,2.637-0.604,2.263-1.169,4.655
		c-2.207,9.34-3.851,19.815-5.756,29.218c-0.354,1.748-0.752,2.99-1.043,4.754c-0.809,4.897-0.349,10.667,1.139,15.296
		c0.415,1.293,1.896,5.109,2.536,6.201C322.063,245.584,325.608,251.539,327.063,252.322z"/>
	<path fill="#1C3C6C" d="M332.429,225.749c-0.656,1.542-1.726,2.781-2.66,5.329c-0.898,2.454-1.121,3.86-1.385,6.667
		c-0.455,4.84-0.975,9.834-1.32,14.577c-0.424,2.925-0.938,5.969-0.218,8.886c0.632,2.553,1.792,4.922,3.095,6.916
		c2.755,4.218,6.256,6.702,10.124,9.679l0.173-2.361c-0.052-1.318,0.187-7.125,0.448-8.166c0.248-0.986,0.983-2.206,1.455-2.905
		c0.478-0.708,1.683-1.788,1.806-2.551c-2.031-1.395-3.203-2.645-4.746-4.229c-0.553-0.568-1.027-0.942-1.525-1.568l-4.671-7.446
		c1.807-2.402,7.659-7.669,10.192-8.747c1.509-1.122,7.01-3.747,8.857-4.678c1.043-0.525,2.131-0.937,3.161-1.388
		c2.452-1.076,8.522-3.222,11.483-4.171c7.357-2.355,19.777-4.949,27.621-6.235c0.498-0.082,1.427-0.185,1.878-0.307
		c0.572-0.157,0.386-0.019,0.683-0.397c0.279-0.355,0.292-0.538,0.379-1.088c-3.584,0.039-20.217,3.767-23.533,4.627
		c-4.007,1.04-7.086,2.049-10.909,3.125c-3.891,1.094-7.008,2.598-10.382,3.799c2.398-4.238,18.203-30.66,18.43-31.573
		c-0.754,0.063-4.882,1.625-5.826,2c-1.905,0.756-3.616,1.506-5.512,2.314l-3.898,1.926c-5.369,2.275-12.41,6.526-16.758,10.547
		c-0.375,0.347-0.631,0.636-0.998,1.003C334.411,222.795,335.288,222.043,332.429,225.749z"/>
	<path fill="#094D91" d="M370.865,201.542c-0.228,0.913-16.032,27.335-18.43,31.573c3.374-1.202,6.492-2.705,10.382-3.799
		c3.824-1.076,6.902-2.085,10.908-3.125c3.316-0.861,19.949-4.588,23.534-4.627c0.196-0.013,0.057,0.298,0.562-0.517
		c5.458-9.382,11.457-18.728,16.549-28.242c-11.773,0-29.703,4.718-41.1,7.865C372.788,200.804,371.324,201.222,370.865,201.542z"/>
	<path fill="#F9F9F9" d="M663.565,226.009h7.646l5.644-5.719h-9.83L663.565,226.009L663.565,226.009z M645.909,257.237v-8.008h2.549
		l-2.419-13.105l-0.13,0.635v-8.644h7.463c0.607,2.633,1.533,6.952,2.249,9.4c1.411,4.826,3.393,13.16,4.706,18.41
		c0.75,3,1.62,5.854,2.328,8.893h-10.739l-1.639-7.582L645.909,257.237L645.909,257.237z M663.565,264.699
		c0,0.768,0.284,0.365,0.729,0.365h9.83v-36.948h-10.557v36.583H663.565z M652.462,202.634c0,7.711,4.254,10.87,12.351,10.946
		c8.098,0.077,11.416-5.724,11.26-12.402v-17.525h-7.956v19.163c-0.133,3.961-2.887,4.479-5.252,3.647
		c-1.373-0.482-1.967-1.814-2.016-3.166v-19.645h-8.388L652.462,202.634L652.462,202.634z M679.402,183.418v29.877h7.646v-17.708
		l8.19,17.708h7.593v-29.877h-7.176v16.331l-7.879-16.331H679.402L679.402,183.418z M676.564,238.989
		c0,10.398,8.192,10.519,11.454,12.066c6.562,0.488,5.104,5.695,1.985,5.854c-3.517,0-8.006-1.532-11.424-2.464
		c-0.339,1.455-2.095,6.931-2.24,8.063c0,0.723,0.357,0.61,0.962,0.83c6.608,2.408,15.916,3.928,21.598-0.895
		c3.328-2.825,3.06-4.38,3.811-8.415c0.373-2.012-0.592-5.297-1.885-7.042c-1.244-1.677-3.175-2.832-5.314-3.647
		c-2.412-0.92-9.712-2.491-8.897-4.446c-0.336-3.537,3.896-2.762,8.276-1.654l4.363,1.079c0.054-0.653,2.034-7.771,2.24-8.512
		c-6.502-1.219-12.362-3.539-18.651-0.367C679.159,231.295,676.564,234.632,676.564,238.989z M645.909,228.115v8.644l-2.549,12.47
		h2.549v8.008h-4.551l-1.665,7.582h-7.19v-11.972l6.49-24.731L645.909,228.115L645.909,228.115z M632.503,204.413v-7.972
		c2.196-0.086,2.849-1.352,2.849-3.635c0-1.718-0.646-2.913-2.366-2.913h-0.482v-6.552h0.846c3.881,0.036,9.926,1.551,10.143,8.372
		c0.078,2.467-1.252,7.104-4.135,8.737c0.379,0.708,2.592,5.128,3.105,5.454c2.049,1.295,1.652-2.96,1.652,7.235
		c-2.986,1.048-6.785,0.458-8.506-2.389L632.503,204.413z M632.503,183.342v6.552h-1.977v-6.552H632.503L632.503,183.342z
		 M632.503,196.441v7.972l-0.785-1.603l-1.191,0.004v-6.368h1.732C632.341,196.446,632.424,196.444,632.503,196.441L632.503,196.441
		z M632.503,252.846v11.972h-1.977v-4.433L632.503,252.846L632.503,252.846z M630.526,246.782v-12.764
		c0.908,1.831,1.291,4.183,1.104,7.179C631.497,243.319,631.13,245.181,630.526,246.782z M630.526,183.342v6.552h-0.871v6.552h0.871
		v6.368l-0.871,0.002v10.479h-8.139v-29.953H630.526L630.526,183.342z M630.526,234.018v12.764
		c-1.816,4.819-5.764,7.28-11.826,7.438h-0.592v-8.303c1.254-0.078,1.972-0.469,2.463-1.474c0.375-0.769,0.594-2.77,0.594-3.886
		c-0.353-3.123-1.227-3.854-3.057-4.009v-8.312h0.369C624.492,228.659,628.641,230.217,630.526,234.018L630.526,234.018z
		 M630.526,260.385v4.433h-1.152l0.955-3.686L630.526,260.385L630.526,260.385z M618.108,206.669v-16.678
		c0.291,0.694,0.53,1.438,0.717,2.23c0.836,3.526,0.852,9.02-0.15,12.719C618.509,205.555,618.319,206.13,618.108,206.669z
		 M618.108,189.991v16.678c-1.957,5.008-5.836,6.904-11.636,6.986v-6.685c0.517,0.003,0.976-0.036,1.289-0.072
		c3.979-0.464,2.729-11.608,2.395-14.018c-0.337-2.436-2.13-3.188-3.684-3.218v-6.679c0.257-0.012,0.481-0.015,0.665-0.007
		C612.439,183.177,616.274,185.584,618.108,189.991L618.108,189.991z M618.108,228.236v8.312c-0.814-0.068-1.821-0.022-3.055-0.022
		v9.407h2.528c0.186,0,0.361-0.005,0.528-0.015v8.303h-3.057v10.88h-8.58v-36.864H618.108L618.108,228.236z M606.473,182.984v6.679
		c-0.516-0.01-1.005,0.06-1.404,0.174c-2.29,0.654-2.822,1.845-2.716,5.698v5.643l0.275,3.275c0.175,2.098,2.277,2.505,3.845,2.517
		v6.685c-0.132,0.001-0.266,0.003-0.4,0.003c-7.718-0.122-12.262-4.222-12.405-14.119c-0.089-6.246,0.533-12.161,6.855-15.351
		C601.854,183.517,604.812,183.062,606.473,182.984L606.473,182.984z M606.473,228.236v36.864h-1.661V228.91
		c0-0.517,0.156-0.673,0.673-0.673L606.473,228.236L606.473,228.236z M581.536,265.176V254.75
		c1.637-4.224,0.688-12.542,0.379-14.772c-0.074-0.532-0.204-0.998-0.379-1.406v-10.389c5.728,1.187,9.614,4.927,11.047,10.983
		c1.028,4.34,1.05,11.101-0.185,15.652C590.691,261.121,587.07,264.185,581.536,265.176L581.536,265.176z M581.536,204.455v-6.747
		c1.018-0.064,1.604-0.382,2.002-1.198c0.303-0.625,0.482-2.25,0.482-3.158c-0.287-2.538-0.997-3.132-2.484-3.257v-6.753h0.299
		c7.243,0.509,11.155,3.042,10.688,10.531c-0.43,6.918-3.942,10.412-10.506,10.583L581.536,204.455L581.536,204.455z
		 M581.536,183.342v6.753c-0.663-0.056-1.48-0.018-2.483-0.018v7.644h2.055c0.151,0,0.293-0.004,0.429-0.013v6.748h-2.483v8.841
		h-8.319v-29.409c0-0.419,0.125-0.546,0.545-0.546L581.536,183.342L581.536,183.342z M581.536,228.182v10.389
		c-1.138-2.656-4.171-2.83-5.883-2.341c-2.817,0.807-3.474,2.271-3.342,7.014v6.943l0.337,4.031c0.288,3.429,4.763,3.189,6.32,3.009
		c1.212-0.141,2.029-1.088,2.567-2.478v10.426c-1.423,0.254-2.973,0.372-4.648,0.372c-7.381-0.118-12.402-3.19-14.355-10.269V238.43
		c1.044-3.75,3.201-6.969,7.526-9.15c1.892-0.954,6.448-1.557,8.143-1.493C579.372,227.833,580.485,227.965,581.536,228.182
		L581.536,228.182z M562.532,231.475c0.314-1.138,0.623-2.26,0.918-3.359h-0.918V231.475z M562.532,228.115v3.359
		c-1.4,5.052-2.936,10.38-4.107,15.096c-1.506,6.063-3.695,12.95-4.985,18.493c-2.489,0-4.978,0-7.464,0
		c-5.897,0-4.883,0.615-5.462-1.637l-6.306-23.544c-0.534-2-1.004-3.884-1.584-5.879c-0.324-1.116-1.503-5.033-1.574-5.888h10.739
		c1.479,7.475,4.987,21.058,5.461,26.756l1.38-6.993c0.788-4.3,2.553-11.798,3.605-16.415c0.227-0.998,0.657-2.379,0.657-3.348
		L562.532,228.115L562.532,228.115z M562.532,238.431c-0.836,2.995-0.959,6.328-0.91,9.741c0.039,2.715,0.348,5.076,0.91,7.108
		V238.431L562.532,238.431z M527.341,265.063v-8.554h2.799c0,2.852,0,5.703,0,8.556h-2.799V265.063z M527.341,250.684v-8.554h1.707
		v8.554H527.341L527.341,250.684z M527.341,236.67v-8.555h2.799v8.555H527.341L527.341,236.67z M527.341,213.802v-6.933
		c1.307,0.022,2.508-0.272,3.329-1.703c0.712-0.89,0.636-8.378,0.562-9.449c-0.353-5.058-1.042-5.736-3.891-5.814v-6.926h0.614
		c3.845,0.079,7.018,1.619,9.615,4.4c1.228,1.041,2.337,5.671,2.554,7.82l0.223,3.251l-0.268,3.385
		c-0.72,5.013-2.02,8.483-6.6,10.691C532.101,213.19,529.094,213.853,527.341,213.802L527.341,213.802z M541.062,192.078
		c0,8.449,6.657,8.547,9.309,9.804c5.33,0.397,4.146,4.627,1.613,4.757c-2.858,0-6.506-1.245-9.283-2.002
		c-0.275,1.183-1.703,5.632-1.82,6.552c0,0.587,0.29,0.496,0.781,0.674c5.37,1.957,12.934,3.192,17.549-0.727
		c2.705-2.296,2.486-3.559,3.097-6.837c0.304-1.634-0.48-4.305-1.532-5.723c-1.012-1.362-2.578-2.3-4.318-2.963
		c-1.96-0.747-7.891-2.023-7.229-3.612c-0.272-2.875,3.165-2.244,6.727-1.344l3.545,0.875c0.044-0.529,1.653-6.313,1.819-6.916
		c-5.283-0.991-10.044-2.875-15.155-0.299C543.17,185.827,541.062,188.539,541.062,192.078z M527.341,182.977v6.926
		c-0.263-0.008-0.542-0.01-0.842-0.01c-2.257,0.111-3.126,2.36-3.095,6.006v4.915c0,2.807,0.313,6.005,3.095,6.005
		c0.283,0.026,0.564,0.045,0.842,0.05v6.933c-0.248-0.007-0.471-0.028-0.66-0.066c-4.458-0.173-7.406-1.51-9.16-3.763
		c-1.844-2.294-3.036-5.673-3.036-9.706v-3.276c0-7.641,4.073-14.015,12.378-14.015L527.341,182.977L527.341,182.977z
		 M527.341,228.115v8.555h-10.126l-0.546,0.546v4.915h10.672v8.554h-10.126l-0.546,0.547v5.278h10.672v8.556h-20.319l-0.729-0.365
		v-36.584L527.341,228.115L527.341,228.115z M500.899,256.299v-27.678h0.755v21.568
		C501.704,252.335,501.462,254.409,500.899,256.299L500.899,256.299z M500.899,213.305v-6.914c1.586-0.168,2.589-0.711,3.107-2.222
		c0.906-2.643,0.663-8.563,0.088-11.35c-0.384-1.867-1.615-2.427-3.195-2.569v-6.885c5.907,0.25,11.186,2.567,12.291,11.384
		c0.564,4.487-0.193,11.123-3.262,14.561C507.646,211.914,504.423,212.937,500.899,213.305z M500.899,183.366v6.885
		c-1.119-0.101-2.414,0.007-3.707,0.007v16.199h2.185c0.559,0,1.065-0.018,1.524-0.066v6.914c-3.952,0.413-8.28,0-12.082,0.069
		v-30.032h10.922C500.13,183.342,500.516,183.349,500.899,183.366L500.899,183.366z M500.899,228.621v27.678
		c-1.59,5.345-5.74,9.223-13.102,9.153c-7.486-0.071-12.303-2.282-14.236-7.4V228.62h9.355v24.176
		c0.063,1.664,0.791,3.302,2.482,3.896c2.91,1.024,6.3,0.388,6.463-4.489v-23.582H500.899L500.899,228.621z M473.561,213.675v-6.707
		c0.327-0.018,0.68-0.065,1.06-0.147c2.25-0.5,2.755-0.893,3.095-5.824c0-2.956,0.009-5.666-0.64-8.591
		c-0.486-2.191-2.016-2.472-3.515-2.506v-6.866c2.101,0.011,4.235,0.388,6.212,0.98c5.09,2.163,6.705,7.974,6.705,13.134
		c-0.268,6.206-0.583,12.574-6.761,15.498C477.829,213.489,475.699,213.761,473.561,213.675z M473.561,183.033v6.867
		c-0.257-0.007-0.511-0.005-0.761-0.005c-3.619,0.34-3.328,5.688-3.328,8.554c-0.084,2.653-0.653,8.779,4.09,8.52v6.708
		c-2.118-0.086-4.243-0.523-6.146-1.105c-5.393-2.236-6.629-8.698-6.629-13.94c0-2.002,0.312-4.765,0.725-6.375
		c0.455-1.773,1.257-3.548,2.237-4.861C466.155,184.172,469.8,183.014,473.561,183.033L473.561,183.033z M473.561,228.621v29.432
		c-0.641-1.696-0.964-3.71-0.964-6.071v-23.36H473.561L473.561,228.621z M439.905,190.257h6.137v22.569h8.113v-22.569h6.396v-6.682
		h-20.646L439.905,190.257L439.905,190.257z M439.673,228.332v36.769h9.407v-21.792l10.081,21.792h9.345v-36.769h-8.832v20.099
		l-9.697-20.099H439.673z"/>
	<path fill="#F49C1E" d="M355.097,269.083c1.461,0.517,2.906,1.446,4.355,2.113c3.795,1.74,9.62,4.243,13.477,5.455
		c3.283,1.033,6.486,2.017,9.922,2.827c1.197,0.281,10.064,2.001,10.338,2.229l1.701,0.074c-0.519-0.745-0.281-0.101,0.051-0.799
		c0.095-0.198,0.293-0.444,0.496-0.785l6.262-10.738l1.385,0.113c-0.596-0.287-2.414-0.478-3.131-0.646
		c-1.08-0.257-2.133-0.492-3.092-0.73c-1.12-0.278-2.037-0.476-3.061-0.763c-1.051-0.293-2.063-0.626-3.095-0.91
		c-0.6-0.164-9.621-3.225-10.646-3.728c-0.77-0.378-0.194,0.259-0.639-0.546c-3.146,0.871-8.699,1.877-12.801,2.94
		c-3.248,0.841-5.835,1.589-9.024,2.62c-0.476,0.155-0.999,0.329-1.496,0.495c-0.181,0.06-0.505,0.151-0.685,0.26
		C354.812,268.924,354.96,268.359,355.097,269.083z"/>
	<path fill="#1C3C6C" d="M345.026,274.548c3.24,4.137,11.293,7.322,17.969,9.311c3.552,1.057,7.159,1.942,10.908,2.746
		c1.455,0.313,11.11,1.913,11.527,2.135l3.158,0.191l-0.443-0.391c1.422-2.308,2.678-4.635,3.978-6.997l1.067,0.16
		c-0.273-0.228-9.143-1.947-10.339-2.229c-3.435-0.81-6.64-1.794-9.922-2.826c-3.857-1.212-9.683-3.713-13.476-5.456
		c-1.45-0.666-2.895-1.595-4.357-2.113c-0.603-0.415-2.073,0.453-2.744,0.774c-0.906,0.433-1.804,0.821-2.683,1.314
		C348.479,271.836,345.364,273.568,345.026,274.548z"/>
	<path fill="#DA1E2E" d="M367.589,251.141l-8.034,14.105c-0.613,1.019-0.335,0.792-0.042,0.935c4.826-1.28,9.414-2.43,14.416-3.531
		c2.98-0.655,11.048-2.23,14.42-2.556c0.91-0.087,0.992,0.3,1.238,0.042c0.023-0.028,0.139-0.163,0.171-0.205
		c2.991-5.004,6.268-10.314,8.958-15.434c-9.855,1.567-19.777,3.122-29.372,5.941C368.784,250.601,367.985,250.76,367.589,251.141z"
		/>
	<path fill="#FDD207" d="M394.892,281.778c9.256,2.043,22.772,2.563,32.471,3.031c0.377,0.771,0.17,0.636,0.17,0.637l0.021,5.868
		l0.014,7.057c0.37-1.171-0.052-23.374-0.092-26.392c-6.51,0-12.389-0.624-18.557-1.465c-1.951-0.267-3.822-0.755-5.835-0.945
		l-1.384-0.113l-6.264,10.739c-0.202,0.34-0.4,0.587-0.495,0.784C394.608,281.677,394.371,281.034,394.892,281.778z"/>
	<path fill="#A41E24" d="M370.5,293.821c0.259,0.329-0.006,0.272,1.165,0.483l3.922,0.618c1.4,0.191,4.045,0.807,5.471,0.676
		l1.391,0.177c-0.262-0.248,0.221-0.34-1.304-0.411c0.281-0.956,1.413-2.636,1.929-3.531c0.828-1.437,1.347-2.918,2.355-3.092
		c-0.416-0.223-10.07-1.822-11.525-2.135c-3.75-0.805-7.356-1.689-10.908-2.747c-6.678-1.987-14.729-5.174-17.971-9.31
		c-0.907,0.302-2.452,2.329-2.799,3.71c-2.434,9.687,23.245,14.311,29.201,15.656L370.5,293.821z"/>
	<path fill="#DA1E2E" d="M381.618,295.806c15.243,1.724,30.601,2.566,45.948,2.566l-0.014-7.057
		c-12.913,0.036-26.092-1.386-38.965-2.382l-3.159-0.192c-1.009,0.173-1.527,1.655-2.355,3.092
		c-0.517,0.896-1.647,2.576-1.929,3.531C384.36,295.514,380.071,295.487,381.618,295.806z"/>
	<path fill="#F49C1E" d="M343.946,261.822c0.611-0.116,2.833-1.938,3.705-2.489c1.399-0.881,2.559-1.488,4.072-2.291
		c2.799-1.485,8.309-3.462,8.893-3.808c-1.304-0.408-8.13-5.365-9.229-6.188c-2.454-1.838-6.337-5.093-8.19-7.215
		c-2.535,1.078-8.387,6.345-10.193,8.747l4.672,7.447c0.497,0.627,0.972,1.001,1.525,1.568
		C340.743,259.176,341.915,260.426,343.946,261.822z"/>
	<path fill="#A41E24" d="M360.616,253.233c-0.585,0.346-6.094,2.323-8.893,3.808c-1.514,0.803-2.673,1.409-4.072,2.291
		c-0.872,0.55-3.094,2.374-3.705,2.489c-0.123,0.762-1.327,1.842-1.806,2.551c-0.472,0.699-1.207,1.917-1.455,2.905
		c-0.262,1.041-0.5,6.847-0.448,8.166l0.064,1.588c1.48-2.072,1.678-2.368,3.529-3.87c3.148-2.557,8.588-4.87,12.637-6.107
		c0.902-0.276,2.279-0.506,3.043-0.873c-0.292-0.142-0.57,0.086,0.043-0.934l8.034-14.105
		C366.753,251.032,361.386,252.786,360.616,253.233z"/>
	<path fill="#094D91" d="M388.589,288.933c12.873,0.996,26.052,2.418,38.965,2.382l-0.021-5.868c0-0.002,0.207,0.134-0.17-0.637
		c-9.698-0.467-23.215-0.987-32.471-3.03l-1.701-0.074l-1.067-0.16c-1.3,2.361-2.556,4.689-3.978,6.997L388.589,288.933z"/>
	<path fill="#730D1C" d="M359.513,266.18c-0.766,0.366-2.143,0.597-3.044,0.873c-4.048,1.238-9.488,3.551-12.637,6.108
		c-1.851,1.501-2.05,1.798-3.53,3.87l-0.063-1.588l-0.174,2.361c0.271,3.491,0.195,5.233,3.859,7.827
		c3.389,2.397,12.973,5.485,16.891,6.408c1.525,0.36,3.18,0.718,4.786,1.039c1.048,0.209,4.057,1.07,4.899,0.744l0.928,0.094
		c-5.957-1.346-31.636-5.97-29.202-15.656c0.347-1.381,1.892-3.408,2.8-3.71c0.338-0.981,3.455-2.712,4.645-3.378
		c0.879-0.493,1.775-0.881,2.684-1.314c0.67-0.321,2.14-1.189,2.743-0.774c-0.138-0.724-0.284-0.158,0.318-0.523
		c0.18-0.109,0.504-0.2,0.685-0.259c0.496-0.166,1.02-0.341,1.496-0.496c3.189-1.031,5.776-1.777,9.024-2.62
		c4.101-1.062,9.653-2.069,12.8-2.94c0.699,0.12,3.869-0.526,4.863-0.691c1.39-0.232,3.344-0.677,4.967-0.677
		c0.146-0.262,0.095-0.186,0.15-0.545c-0.158-0.218,0.005-0.34-1.052-0.238c-3.372,0.325-11.438,1.9-14.419,2.556
		C368.927,263.75,364.339,264.9,359.513,266.18z"/>
	<path fill="#F9F9F9" d="M510.116,280.17c1.223,0,2.046,0.462,2.469,1.354c0.59,1.823,0.865,4.881,0.027,6.785
		c-0.432,0.983-1.473,1.476-2.508,1.474v4.376c0.787,0.578,2.087,0.464,3.794,0.091l-0.142-1.34c-2.22,0.274-3.102,0.673-2.819-1.82
		c3.356-0.074,4.004-4.12,4.004-6.733c0-3.774-1.875-5.284-4.098-5.642c-0.199-0.032-0.452-0.052-0.739-0.046v1.502H510.116
		L510.116,280.17z M510.104,289.783c-0.988-0.002-1.971-0.455-2.414-1.362c-0.475-0.975-0.557-2.026-0.61-3.387
		c-0.087-2.243,0.314-4.856,3.024-4.864v-1.502c-1.202,0.019-2.988,0.447-3.876,1.982c-0.56,0.965-1.027,2.813-1.027,4.252
		c0.21,4.184,1.335,5.888,4.049,6.281c-0.085,1.595,0.22,2.511,0.854,2.977V289.783z"/>
	<path fill="#F9F9F9" d="M545.165,280.259c2.306,0.335,2.854,1.653,2.731,5.634c0,1.994-0.954,3.358-2.731,3.671v1.399
		c3.521-0.012,4.468-3.676,4.459-6.313c-0.011-2.797-1.086-5.27-4.146-5.681c-0.104-0.014-0.208-0.026-0.313-0.037V280.259
		L545.165,280.259z M544.337,289.635h-1.919v-9.443h2.103c0.228,0.017,0.443,0.038,0.645,0.067v-1.326
		c-1.473-0.156-2.993-0.039-4.467-0.039v12.07h4.45h0.018v-1.4C544.906,289.611,544.63,289.635,544.337,289.635z"/>
	<polygon fill="#F9F9F9" points="694.765,278.821 694.765,290.909 696.277,290.909 696.277,281.281 701.764,290.909 
		703.248,290.909 703.248,278.821 701.876,278.821 701.876,288.335 696.546,278.821 	"/>
	<path fill="#F9F9F9" d="M685.345,280.135c2.05,0.121,2.574,0.934,2.978,4.585c0.349,3.168-1.022,5.002-2.958,4.955l-0.019-0.001
		v1.411c0.024,0.003,0.047,0.005,0.064,0.005c3.534,0,4.571-3.101,4.575-6.078c0-1.725-0.257-3.409-0.806-4.426
		c-0.68-1.258-1.685-1.821-3.522-1.92c-0.105-0.006-0.209-0.009-0.313-0.01V280.135L685.345,280.135z M682.314,285.266
		c0.024-3.005,0.423-4.956,2.341-5.149c0.247,0,0.477,0.005,0.689,0.017v-1.478c-3.03-0.033-4.85,1.916-4.85,5.335
		c0,1.503,0.01,4.667,1.158,5.575c0.385,0.304,3.032,1.439,3.691,1.518v-1.411C683.485,289.622,682.288,288.46,682.314,285.266z"/>
	<path fill="#F9F9F9" d="M455.053,280.408l1.548,5.769h-1.548v1.328h1.923l1.263,3.5h1.819l-3.822-12.109h-1.184L455.053,280.408
		L455.053,280.408z M455.047,280.387l0.006,0.021v-1.512h-1.033l-3.79,12.109h1.639l1.22-3.5h1.965v-1.328h-1.548L455.047,280.387z"
		/>
	<path fill="#F9F9F9" d="M519.706,286.358c0,3.608,1.469,5.125,4.93,4.865c2.593-0.195,3.791-1.752,3.791-3.608v-8.719h-1.745v8.373
		c0,2.185-1.732,2.536-2.702,2.551c-1.822,0.028-2.577-1.106-2.577-2.679v-8.244h-1.696V286.358L519.706,286.358z"/>
	<polygon fill="#F9F9F9" points="494.098,291.09 501.196,291.09 501.196,289.635 495.917,289.635 495.917,285.63 500.833,285.63 
		500.833,284.174 495.917,284.174 495.917,280.352 501.184,280.352 501.196,278.896 494.098,278.896 	"/>
	<path fill="#F9F9F9" d="M443.591,280.363c0.699,0.035,2.002,0.262,2.087,1.808c0.086,1.577-0.204,2.58-2.087,2.714v1.506
		c2.702-0.225,3.854-1.452,3.907-3.311v-1.092c0-1.607-1.38-3.094-3.095-3.094h-0.813V280.363z M443.13,284.903h-1.639v-4.551
		l1.814,0.005c0.073,0,0.172,0.001,0.285,0.006v-1.467h-3.686v12.195h1.586v-4.705c0.784,0.058,1.481,0.058,2.1,0.008v-1.506
		C443.447,284.897,443.294,284.903,443.13,284.903z"/>
	<path fill="#F9F9F9" d="M464.063,280.352h5.643c-0.201,0.753-5.791,8.521-6.007,9.283v1.456h8.009v-1.456H465.7
		c0.201-0.755,5.861-8.792,6.008-9.283v-1.457h-7.646L464.063,280.352L464.063,280.352z"/>
	<path fill="#F9F9F9" d="M637.354,285.266c-0.231,4.925,3.831,7.029,8.009,4.915l-0.363-1.457c-0.569,0.207-1.113,0.433-1.645,0.534
		c-2.441,0.46-4.139,0.002-4.18-4.173c-0.04-3.935,0.755-6.125,5.643-4.369l0.363-1.638c-0.547-0.046-0.805-0.191-1.349-0.292
		C638.831,277.866,637.354,280.666,637.354,285.266z"/>
	<rect x="533.598" y="278.896" fill="#F9F9F9" width="1.819" height="12.195"/>
	<path fill="#F9F9F9" d="M685.046,278.35c1.284,0,1.103-0.268,2.547-2.002h-1.819C684.793,277.812,684.024,278.35,685.046,278.35z"
		/>
	<path fill="#F9F9F9" d="M557.662,280.408l1.548,5.769h-1.548v1.328h1.923l1.263,3.5h1.82l-3.822-12.109h-1.185L557.662,280.408
		L557.662,280.408z M557.656,280.387l0.006,0.021v-1.512h-1.033l-3.79,12.109h1.638l1.221-3.5h1.965v-1.328h-1.548L557.656,280.387z
		"/>
	<path fill="#F9F9F9" d="M571.392,280.259c2.306,0.335,2.854,1.653,2.73,5.634c0,1.994-0.953,3.358-2.73,3.671v1.399
		c3.521-0.012,4.469-3.676,4.459-6.313c-0.011-2.797-1.086-5.27-4.146-5.681c-0.104-0.014-0.209-0.026-0.313-0.037V280.259
		L571.392,280.259z M570.563,289.635h-1.919v-9.443h2.101c0.23,0.017,0.444,0.038,0.646,0.067v-1.326
		c-1.474-0.156-2.994-0.039-4.469-0.039v12.07h4.451h0.019v-1.4C571.134,289.611,570.856,289.635,570.563,289.635z"/>
	<polygon fill="#F9F9F9" points="599.024,291.09 606.124,291.09 606.124,289.635 600.845,289.635 600.845,285.63 605.76,285.63 
		605.76,284.174 600.845,284.174 600.845,280.352 606.11,280.352 606.124,278.896 599.024,278.896 	"/>
	<path fill="#F9F9F9" d="M615.056,280.259c2.306,0.335,2.852,1.653,2.73,5.634c0,1.994-0.953,3.358-2.73,3.671v1.399
		c3.521-0.012,4.467-3.676,4.458-6.313c-0.01-2.797-1.085-5.27-4.146-5.681c-0.103-0.014-0.207-0.026-0.312-0.037V280.259
		L615.056,280.259z M614.229,289.635h-1.921v-9.443h2.103c0.229,0.017,0.444,0.038,0.646,0.067v-1.326
		c-1.473-0.156-2.994-0.039-4.469-0.039v12.07h4.451h0.018v-1.4C614.797,289.611,614.521,289.635,614.229,289.635z"/>
	<path fill="#F9F9F9" d="M623.935,286.358c0,3.608,1.469,5.125,4.931,4.865c2.591-0.195,3.79-1.752,3.79-3.608v-8.719h-1.745v8.373
		c0,2.185-1.732,2.536-2.702,2.551c-1.822,0.028-2.576-1.106-2.576-2.679v-8.244h-1.697V286.358z"/>
	<path fill="#F9F9F9" d="M653.626,280.408l1.547,5.769h-1.547v1.328h1.923l1.262,3.5h1.821l-3.823-12.109h-1.184L653.626,280.408
		L653.626,280.408z M653.62,280.387l0.006,0.021v-1.512h-1.034l-3.79,12.109h1.639l1.22-3.5h1.966v-1.328h-1.547L653.62,280.387z"/>
	<rect x="673.962" y="278.896" fill="#F9F9F9" width="1.82" height="12.195"/>
	<path fill="#F9F9F9" d="M661.638,285.266c-0.232,4.925,3.83,7.029,8.01,4.915l-0.364-1.457c-0.569,0.207-1.113,0.433-1.645,0.534
		c-2.442,0.46-4.139,0.002-4.181-4.173c-0.039-3.935,0.756-6.125,5.643-4.369l0.363-1.638c-0.547-0.046-0.804-0.191-1.348-0.292
		C663.114,277.866,661.638,280.666,661.638,285.266z"/>
</g>
</svg>
